<mxfile host="65bd71144e">
    <diagram name="Vector Operations" id="vector-ops">
        <mxGraphModel dx="1729" dy="1424" grid="1" gridSize="10" guides="1" tooltips="1" connect="1" arrows="1" fold="1" page="1" pageScale="1" pageWidth="1169" pageHeight="827" math="0" shadow="0">
            <root>
                <mxCell id="0"/>
                <mxCell id="1" parent="0"/>
                <mxCell id="title" value="Vector Operations in Ray Tracing" style="text;html=1;strokeColor=none;fillColor=none;align=center;verticalAlign=middle;whiteSpace=wrap;rounded=0;fontSize=24;fontStyle=1;" parent="1" vertex="1">
                    <mxGeometry x="260" y="-10" width="390" height="40" as="geometry"/>
                </mxCell>
                <mxCell id="cross-title" value="Cross Product (a × b)" style="text;html=1;strokeColor=none;fillColor=#e1d5e7;align=center;verticalAlign=middle;whiteSpace=wrap;rounded=1;fontSize=16;fontStyle=1;fontColor=#000000;" parent="1" vertex="1">
                    <mxGeometry x="50" y="80" width="200" height="30" as="geometry"/>
                </mxCell>
                <mxCell id="vector-a" value="Vector a" style="endArrow=classic;html=1;rounded=0;strokeWidth=3;strokeColor=#d79b00;" parent="1" edge="1">
                    <mxGeometry width="50" height="50" relative="1" as="geometry">
                        <mxPoint x="100" y="150" as="sourcePoint"/>
                        <mxPoint x="200" y="120" as="targetPoint"/>
                    </mxGeometry>
                </mxCell>
                <mxCell id="vector-b" value="Vector b" style="endArrow=classic;html=1;rounded=0;strokeWidth=3;strokeColor=#2e7d32;" parent="1" edge="1">
                    <mxGeometry width="50" height="50" relative="1" as="geometry">
                        <mxPoint x="100" y="150" as="sourcePoint"/>
                        <mxPoint x="180" y="200" as="targetPoint"/>
                    </mxGeometry>
                </mxCell>
                <mxCell id="vector-cross" value="a × b" style="endArrow=classic;html=1;rounded=0;strokeWidth=3;strokeColor=#c62828;" parent="1" edge="1">
                    <mxGeometry width="50" height="50" relative="1" as="geometry">
                        <mxPoint x="100" y="150" as="sourcePoint"/>
                        <mxPoint x="80" y="100" as="targetPoint"/>
                    </mxGeometry>
                </mxCell>
                <mxCell id="cross-formula" value="Formula:&#10;a × b = (a_y×b_z - a_z×b_y,&#10;        a_z×b_x - a_x×b_z,&#10;        a_x×b_y - a_y×b_x)" style="text;html=1;strokeColor=none;fillColor=#f3e5f5;align=left;verticalAlign=top;whiteSpace=wrap;rounded=1;fontSize=10;fontColor=#000000;" parent="1" vertex="1">
                    <mxGeometry x="50" y="220" width="200" height="60" as="geometry"/>
                </mxCell>
                <mxCell id="cross-properties" value="Properties:&#10;• Perpendicular to both a and b&#10;• Right-hand rule direction&#10;• Magnitude = area of parallelogram&#10;• Used for surface normals" style="text;html=1;strokeColor=none;fillColor=#e8f5e8;align=left;verticalAlign=top;whiteSpace=wrap;rounded=1;fontSize=10;fontColor=#000000;" parent="1" vertex="1">
                    <mxGeometry x="50" y="290" width="200" height="80" as="geometry"/>
                </mxCell>
                <mxCell id="dot-title" value="Dot Product (a · b)" style="text;html=1;strokeColor=none;fillColor=#e1d5e7;align=center;verticalAlign=middle;whiteSpace=wrap;rounded=1;fontSize=16;fontStyle=1;fontColor=#000000;" vertex="1" parent="1">
                    <mxGeometry x="900" y="80" width="200" height="30" as="geometry"/>
                </mxCell>
                <mxCell id="dot-formula" value="Formula:&#10;a · b = a_x×b_x + a_y×b_y + a_z×b_z&#10;&#10;Result: Scalar (single number)&#10;&#10;Measures alignment:&#10;• a · b = 0: Perpendicular vectors&#10;• a · b &gt; 0: Same direction&#10;• a · b &lt; 0: Opposite direction" style="text;html=1;strokeColor=none;fillColor=#f3e5f5;align=left;verticalAlign=top;whiteSpace=wrap;rounded=1;fontSize=10;fontColor=#000000;" vertex="1" parent="1">
                    <mxGeometry x="910" y="259.17" width="200" height="120" as="geometry"/>
                </mxCell>
                <mxCell id="dot-properties" value="Properties:&#10;• Measures how aligned vectors are&#10;• a · b = |a| × |b| × cos(θ)&#10;• Used for lighting calculations&#10;• Essential for ray-sphere intersection&#10;&#10;Think: &quot;How much do these&#10;vectors point in the same&#10;direction?&quot;" style="text;html=1;strokeColor=none;fillColor=#e8f5e8;align=left;verticalAlign=top;whiteSpace=wrap;rounded=1;fontSize=9;fontColor=#000000;" vertex="1" parent="1">
                    <mxGeometry x="910" y="389.17" width="200" height="120" as="geometry"/>
                </mxCell>
                <mxCell id="dot-visual-title" value="Visual Examples" style="text;html=1;strokeColor=none;fillColor=#fff3e0;align=center;verticalAlign=middle;whiteSpace=wrap;rounded=1;fontSize=14;fontStyle=1;fontColor=#000000;" vertex="1" parent="1">
                    <mxGeometry x="900" y="519.17" width="220" height="25" as="geometry"/>
                </mxCell>
                <mxCell id="reflect-title" value="Vector Reflection" style="text;html=1;strokeColor=none;fillColor=#e1d5e7;align=center;verticalAlign=middle;whiteSpace=wrap;rounded=1;fontSize=16;fontStyle=1;fontColor=#000000;" parent="1" vertex="1">
                    <mxGeometry x="350" y="80" width="200" height="30" as="geometry"/>
                </mxCell>
                <mxCell id="incident-ray" value="Incident Ray (I)" style="endArrow=classic;html=1;rounded=0;strokeWidth=3;strokeColor=#1976d2;" parent="1" edge="1">
                    <mxGeometry x="-0.2" width="50" height="50" relative="1" as="geometry">
                        <mxPoint x="500" y="200" as="sourcePoint"/>
                        <mxPoint x="450" y="150" as="targetPoint"/>
                        <mxPoint as="offset"/>
                    </mxGeometry>
                </mxCell>
                <mxCell id="surface-normal" value="Surface Normal (N)" style="endArrow=classic;html=1;rounded=0;strokeWidth=3;strokeColor=#388e3c;" parent="1" edge="1">
                    <mxGeometry width="50" height="50" relative="1" as="geometry">
                        <mxPoint x="450" y="150" as="sourcePoint"/>
                        <mxPoint x="450" y="100" as="targetPoint"/>
                    </mxGeometry>
                </mxCell>
                <mxCell id="reflected-ray" value="Reflected Ray (R)" style="endArrow=classic;html=1;rounded=0;strokeWidth=3;strokeColor=#d32f2f;" parent="1" edge="1">
                    <mxGeometry x="0.6098" y="-16" width="50" height="50" relative="1" as="geometry">
                        <mxPoint x="450" y="150" as="sourcePoint"/>
                        <mxPoint x="390" y="200" as="targetPoint"/>
                        <mxPoint as="offset"/>
                    </mxGeometry>
                </mxCell>
                <mxCell id="surface-line" value="" style="endArrow=none;html=1;rounded=0;strokeWidth=2;strokeColor=#666666;" parent="1" edge="1">
                    <mxGeometry width="50" height="50" relative="1" as="geometry">
                        <mxPoint x="350" y="150" as="sourcePoint"/>
                        <mxPoint x="550" y="150" as="targetPoint"/>
                    </mxGeometry>
                </mxCell>
                <mxCell id="reflect-formula" value="Formula:&#10;R = I - 2(I·N)N&#10;&#10;Where:&#10;• I = incident vector&#10;• N = surface normal&#10;• R = reflected vector" style="text;html=1;strokeColor=none;fillColor=#f3e5f5;align=left;verticalAlign=top;whiteSpace=wrap;rounded=1;fontSize=10;fontColor=#000000;" parent="1" vertex="1">
                    <mxGeometry x="355" y="215" width="200" height="80" as="geometry"/>
                </mxCell>
                <mxCell id="reflect-properties" value="Properties:&#10;• Angle of incidence = angle of reflection&#10;• Law of reflection&#10;• Used for specular highlights&#10;• Energy conservation" style="text;html=1;strokeColor=none;fillColor=#e8f5e8;align=left;verticalAlign=top;whiteSpace=wrap;rounded=1;fontSize=10;fontColor=#000000;" parent="1" vertex="1">
                    <mxGeometry x="355" y="305" width="200" height="80" as="geometry"/>
                </mxCell>
                <mxCell id="normalize-title" value="Vector Normalization" style="text;html=1;strokeColor=none;fillColor=#e1d5e7;align=center;verticalAlign=middle;whiteSpace=wrap;rounded=1;fontSize=16;fontStyle=1;fontColor=#000000;" parent="1" vertex="1">
                    <mxGeometry x="650" y="80" width="200" height="30" as="geometry"/>
                </mxCell>
                <mxCell id="original-vector" value="Original Vector" style="endArrow=classic;html=1;rounded=0;strokeWidth=4;strokeColor=#ff9800;" parent="1" edge="1">
                    <mxGeometry width="50" height="50" relative="1" as="geometry">
                        <mxPoint x="690" y="145" as="sourcePoint"/>
                        <mxPoint x="790" y="115" as="targetPoint"/>
                    </mxGeometry>
                </mxCell>
                <mxCell id="normalized-vector" value="Unit Vector" style="endArrow=classic;html=1;rounded=0;strokeWidth=2;strokeColor=#4caf50;" parent="1" edge="1">
                    <mxGeometry width="50" height="50" relative="1" as="geometry">
                        <mxPoint x="690" y="195" as="sourcePoint"/>
                        <mxPoint x="740" y="175" as="targetPoint"/>
                    </mxGeometry>
                </mxCell>
                <mxCell id="normalize-formula" value="Formula:&#10;û = u / |u|&#10;&#10;Where:&#10;• u = original vector&#10;• |u| = magnitude of u&#10;• û = unit vector" style="text;html=1;strokeColor=none;fillColor=#f3e5f5;align=left;verticalAlign=top;whiteSpace=wrap;rounded=1;fontSize=10;fontColor=#000000;" parent="1" vertex="1">
                    <mxGeometry x="640" y="215" width="200" height="80" as="geometry"/>
                </mxCell>
                <mxCell id="normalize-properties" value="Properties:&#10;• Preserves direction&#10;• Sets magnitude to 1&#10;• Required for lighting&#10;• Surface normals" style="text;html=1;strokeColor=none;fillColor=#e8f5e8;align=left;verticalAlign=top;whiteSpace=wrap;rounded=1;fontSize=10;fontColor=#000000;" parent="1" vertex="1">
                    <mxGeometry x="640" y="305" width="200" height="80" as="geometry"/>
                </mxCell>
                <mxCell id="application-title" value="Ray Tracing Applications" style="text;html=1;strokeColor=none;fillColor=#fff3e0;align=center;verticalAlign=middle;whiteSpace=wrap;rounded=1;fontSize=16;fontStyle=1;fontColor=#000000;" parent="1" vertex="1">
                    <mxGeometry x="50" y="520" width="800" height="30" as="geometry"/>
                </mxCell>
                <mxCell id="app-cross" value="Cross Product Uses:&#10;• Calculate surface normals&#10;• Create coordinate systems&#10;• Determine triangle orientation&#10;• Bump mapping" style="text;html=1;strokeColor=none;fillColor=#e3f2fd;align=left;verticalAlign=top;whiteSpace=wrap;rounded=1;fontSize=11;fontColor=#000000;" parent="1" vertex="1">
                    <mxGeometry x="50" y="560" width="180" height="80" as="geometry"/>
                </mxCell>
                <mxCell id="app-dot" value="Dot Product Uses:&#10;• Ray-sphere intersection&#10;• Lighting calculations&#10;• Surface shading&#10;• Alignment detection" style="text;html=1;strokeColor=none;fillColor=#e8f5e8;align=left;verticalAlign=top;whiteSpace=wrap;rounded=1;fontSize=11;fontColor=#000000;" vertex="1" parent="1">
                    <mxGeometry x="250" y="560" width="180" height="80" as="geometry"/>
                </mxCell>
                <mxCell id="app-reflect" value="Reflection Uses:&#10;• Specular highlights&#10;• Mirror reflections&#10;• Metallic surfaces&#10;• Glass materials" style="text;html=1;strokeColor=none;fillColor=#e8f5e8;align=left;verticalAlign=top;whiteSpace=wrap;rounded=1;fontSize=11;fontColor=#000000;" parent="1" vertex="1">
                    <mxGeometry x="450" y="560" width="180" height="80" as="geometry"/>
                </mxCell>
                <mxCell id="app-normalize" value="Normalization Uses:&#10;• Surface normals&#10;• Light direction vectors&#10;• View direction vectors&#10;• Coordinate system axes" style="text;html=1;strokeColor=none;fillColor=#fce4ec;align=left;verticalAlign=top;whiteSpace=wrap;rounded=1;fontSize=11;fontColor=#000000;" parent="1" vertex="1">
                    <mxGeometry x="650" y="560" width="180" height="80" as="geometry"/>
                </mxCell>
                <mxCell id="app-combined" value="Combined Operations:&#10;• Lighting calculations&#10;• Shading models&#10;• Material properties&#10;• 3D transformations" style="text;html=1;strokeColor=none;fillColor=#f3e5f5;align=left;verticalAlign=top;whiteSpace=wrap;rounded=1;fontSize=11;fontColor=#000000;" parent="1" vertex="1">
                    <mxGeometry x="50" y="650" width="180" height="80" as="geometry"/>
                </mxCell>
                <mxCell id="examples-title" value="Mathematical Examples" style="text;html=1;strokeColor=none;fillColor=#fff3e0;align=center;verticalAlign=middle;whiteSpace=wrap;rounded=1;fontSize=16;fontStyle=1;fontColor=#000000;" parent="1" vertex="1">
                    <mxGeometry x="50" y="750" width="800" height="30" as="geometry"/>
                </mxCell>
                <mxCell id="example-cross" value="Cross Product Example:&#10;a = {1, 0, 0}&#10;b = {0, 1, 0}&#10;a × b = {0, 0, 1}&#10;&#10;Creates Z-axis from X and Y" style="text;html=1;strokeColor=none;fillColor=#e3f2fd;align=left;verticalAlign=top;whiteSpace=wrap;rounded=1;fontSize=10;fontColor=#000000;" parent="1" vertex="1">
                    <mxGeometry x="50" y="790" width="180" height="100" as="geometry"/>
                </mxCell>
                <mxCell id="example-dot" value="Dot Product Example:&#10;a = {1, 0, 0}&#10;b = {0, 1, 0}&#10;a · b = 0&#10;&#10;Perpendicular vectors" style="text;html=1;strokeColor=none;fillColor=#e8f5e8;align=left;verticalAlign=top;whiteSpace=wrap;rounded=1;fontSize=10;fontColor=#000000;" parent="1" vertex="1">
                    <mxGeometry x="250" y="790" width="180" height="100" as="geometry"/>
                </mxCell>
                <mxCell id="example-reflect" value="Reflection Example:&#10;I = {1, -1, 0}&#10;N = {0, 1, 0}&#10;R = {1, 1, 0}&#10;&#10;Perfect mirror reflection" style="text;html=1;strokeColor=none;fillColor=#e8f5e8;align=left;verticalAlign=top;whiteSpace=wrap;rounded=1;fontSize=10;fontColor=#000000;" parent="1" vertex="1">
                    <mxGeometry x="450" y="790" width="180" height="100" as="geometry"/>
                </mxCell>
                <mxCell id="example-normalize" value="Normalization Example:&#10;v = {3, 4, 0}&#10;|v| = √(3² + 4²) = 5&#10;û = {0.6, 0.8, 0}&#10;&#10;Unit vector with same direction" style="text;html=1;strokeColor=none;fillColor=#fce4ec;align=left;verticalAlign=top;whiteSpace=wrap;rounded=1;fontSize=10;fontColor=#000000;" parent="1" vertex="1">
                    <mxGeometry x="650" y="790" width="180" height="100" as="geometry"/>
                </mxCell>
                <mxCell id="legend-title" value="Legend" style="text;html=1;strokeColor=none;fillColor=#f5f5f5;align=center;verticalAlign=middle;whiteSpace=wrap;rounded=1;fontSize=14;fontStyle=1;fontColor=#000000;" parent="1" vertex="1">
                    <mxGeometry x="50" y="910" width="800" height="25" as="geometry"/>
                </mxCell>
                <mxCell id="legend-vectors" value="Vector Colors:&#10;• Orange: Original vectors&#10;• Green: Surface normals&#10;• Blue: Incident rays&#10;• Red: Reflected rays&#10;• Purple: Cross products" style="text;html=1;strokeColor=none;fillColor=#fafafa;align=left;verticalAlign=top;whiteSpace=wrap;rounded=1;fontSize=10;fontColor=#000000;" parent="1" vertex="1">
                    <mxGeometry x="50" y="940" width="200" height="80" as="geometry"/>
                </mxCell>
                <mxCell id="legend-formulas" value="Formula Notation:&#10;• × = Cross product&#10;• · = Dot product&#10;• |v| = Vector magnitude&#10;• û = Unit vector" style="text;html=1;strokeColor=none;fillColor=#fafafa;align=left;verticalAlign=top;whiteSpace=wrap;rounded=1;fontSize=10;fontColor=#000000;" parent="1" vertex="1">
                    <mxGeometry x="270" y="940" width="200" height="80" as="geometry"/>
                </mxCell>
                <mxCell id="legend-applications" value="Ray Tracing Terms:&#10;• I = Incident vector&#10;• N = Normal vector&#10;• R = Reflected vector&#10;• θ = Angle between vectors" style="text;html=1;strokeColor=none;fillColor=#fafafa;align=left;verticalAlign=top;whiteSpace=wrap;rounded=1;fontSize=10;fontColor=#000000;" parent="1" vertex="1">
                    <mxGeometry x="490" y="940" width="200" height="80" as="geometry"/>
                </mxCell>
                <mxCell id="legend-properties" value="Key Properties:&#10;• Perpendicular: 90° angle&#10;• Unit vector: length = 1&#10;• Right-hand rule: 3D orientation&#10;• Energy conservation: physics law" style="text;html=1;strokeColor=none;fillColor=#fafafa;align=left;verticalAlign=top;whiteSpace=wrap;rounded=1;fontSize=10;fontColor=#000000;" parent="1" vertex="1">
                    <mxGeometry x="710" y="940" width="200" height="80" as="geometry"/>
                </mxCell>
                <mxCell id="4" value="" style="shape=image;verticalLabelPosition=bottom;labelBackgroundColor=default;verticalAlign=top;aspect=fixed;imageAspect=0;image=data:image/png,iVBORw0KGgoAAAANSUhEUgAAAigAAAIaCAYAAAAKv7YjAAAMTWlDQ1BJQ0MgUHJvZmlsZQAASImVVwdYU8kWnltSIQQIREBK6E0QkRJASggt9I4gKiEJEEqMCUHFjiyu4NpFBMuKrlIU2wrIYkNddWVR7H2xoKKsi+tiV96EALrsK9+b75s7//3nzD/nnDtz7x0A6F18qTQX1QQgT5Iviw32Z01OTmGRegAFaAMG0AQkvkAu5URHhwNYhtu/l9fXAKJsLzsotf7Z/1+LllAkFwCAREOcLpQL8iD+EQC8VSCV5QNAlELefFa+VInXQawjgw5CXKPEmSrcqsTpKnxx0CY+lgvxIwDI6ny+LBMAjT7IswoEmVCHDqMFThKhWAKxH8Q+eXkzhBAvgtgG2sA56Up9dvpXOpl/00wf0eTzM0ewKpbBQg4Qy6W5/Dn/Zzr+d8nLVQzPYQ2repYsJFYZM8zbo5wZYUqsDvFbSXpkFMTaAKC4WDhor8TMLEVIgsoetRHIuTBngAnxJHluHG+IjxXyA8IgNoQ4Q5IbGT5kU5QhDlLawPyhFeJ8XjzEehDXiOSBcUM2x2UzYofnvZYh43KG+Kd82aAPSv3PipwEjkof084S8Yb0McfCrPgkiKkQBxSIEyMh1oA4Up4TFzZkk1qYxY0ctpEpYpWxWEAsE0mC/VX6WHmGLCh2yL4uTz4cO3Y8S8yLHMKX8rPiQ1S5wh4J+IP+w1iwPpGEkzCsI5JPDh+ORSgKCFTFjpNFkoQ4FY/rSfP9Y1VjcTtpbvSQPe4vyg1W8mYQx8sL4obHFuTDxanSx0uk+dHxKj/xymx+aLTKH3wfCAdcEABYQAFrOpgBsoG4o7epF96peoIAH8hAJhABhyFmeETSYI8EXuNAIfgdIhGQj4zzH+wVgQLIfxrFKjnxCKe6OoCMoT6lSg54DHEeCAO58F4xqCQZ8SARPIKM+B8e8WEVwBhyYVX2/3t+mP3CcCATPsQohmdk0YctiYHEAGIIMYhoixvgPrgXHg6vfrA642zcYziOL/aEx4ROwgPCVUIX4eZ0cZFslJcRoAvqBw3lJ/3r/OBWUNMV98e9oTpUxpm4AXDAXeA8HNwXzuwKWe6Q38qssEZp/y2Cr57QkB3FiYJSxlD8KDajR2rYabiOqChz/XV+VL6mj+SbO9Izen7uV9kXwjZstCX2LXYQO4OdwM5hrVgTYGHHsGasHTuixCMr7tHgihueLXbQnxyoM3rNfHmyykzKneqdepw+qvryRbPzlZuRO0M6RybOzMpnceAXQ8TiSQSO41jOTs6uACi/P6rX26uYwe8Kwmz/wi35DQDvYwMDAz994UKPAbDfHb4SDn/hbNjw06IGwNnDAoWsQMXhygsBvjnocPfpA2NgDmxgPM7ADXgBPxAIQkEUiAfJYBr0PguucxmYBeaBxaAElIFVYD2oBFvBdlAD9oADoAm0ghPgZ3AeXARXwW24errBc9AHXoMPCIKQEBrCQPQRE8QSsUecETbigwQi4UgskoykIZmIBFEg85AlSBmyBqlEtiG1yH7kMHICOYd0IjeR+0gP8ifyHsVQdVQHNUKt0PEoG+WgYWg8OhXNRGeihWgxugKtQKvR3WgjegI9j15Fu9DnaD8GMDWMiZliDhgb42JRWAqWgcmwBVgpVo5VYw1YC3zOl7EurBd7hxNxBs7CHeAKDsETcAE+E1+AL8cr8Rq8ET+FX8bv4334ZwKNYEiwJ3gSeITJhEzCLEIJoZywk3CIcBrupW7CayKRyCRaE93hXkwmZhPnEpcTNxP3Eo8TO4kPif0kEkmfZE/yJkWR+KR8UglpI2k36RjpEqmb9JasRjYhO5ODyClkCbmIXE6uIx8lXyI/IX+gaFIsKZ6UKIqQMoeykrKD0kK5QOmmfKBqUa2p3tR4ajZ1MbWC2kA9Tb1DfaWmpmam5qEWoyZWW6RWobZP7azafbV36trqdupc9VR1hfoK9V3qx9Vvqr+i0WhWND9aCi2ftoJWSztJu0d7q8HQcNTgaQg1FmpUaTRqXNJ4QafQLekc+jR6Ib2cfpB+gd6rSdG00uRq8jUXaFZpHta8rtmvxdCaoBWllae1XKtO65zWU22StpV2oLZQu1h7u/ZJ7YcMjGHO4DIEjCWMHYzTjG4doo61Dk8nW6dMZ49Oh06frraui26i7mzdKt0jul1MjGnF5DFzmSuZB5jXmO/HGI3hjBGNWTamYcylMW/0xur56Yn0SvX26l3Ve6/P0g/Uz9Ffrd+kf9cAN7AziDGYZbDF4LRB71idsV5jBWNLxx4Ye8sQNbQzjDWca7jdsN2w38jYKNhIarTR6KRRrzHT2M8423id8VHjHhOGiY+J2GSdyTGTZyxdFoeVy6pgnWL1mRqahpgqTLeZdph+MLM2SzArMttrdtecas42zzBfZ95m3mdhYhFhMc+i3uKWJcWSbZllucHyjOUbK2urJKulVk1WT631rHnWhdb11ndsaDa+NjNtqm2u2BJt2bY5tpttL9qhdq52WXZVdhfsUXs3e7H9ZvvOcYRxHuMk46rHXXdQd+A4FDjUO9x3ZDqGOxY5Njm+GG8xPmX86vFnxn92cnXKddrhdHuC9oTQCUUTWib86WznLHCucr4ykTYxaOLCic0TX7rYu4hctrjccGW4RrgudW1z/eTm7iZza3DrcbdwT3Pf5H6drcOOZi9nn/UgePh7LPRo9Xjn6eaZ73nA8w8vB68crzqvp5OsJ4km7Zj00NvMm++9zbvLh+WT5vO9T5evqS/ft9r3gZ+5n9Bvp98Tji0nm7Ob88LfyV/mf8j/DdeTO597PAALCA4oDegI1A5MCKwMvBdkFpQZVB/UF+waPDf4eAghJCxkdch1nhFPwKvl9YW6h84PPRWmHhYXVhn2INwuXBbeEoFGhEasjbgTaRkpiWyKAlG8qLVRd6Oto2dG/xRDjImOqYp5HDshdl7smThG3PS4urjX8f7xK+NvJ9gkKBLaEumJqYm1iW+SApLWJHVNHj95/uTzyQbJ4uTmFFJKYsrOlP4pgVPWT+lOdU0tSb021Xrq7KnnphlMy512ZDp9On/6wTRCWlJaXdpHfhS/mt+fzkvflN4n4Ao2CJ4L/YTrhD0ib9Ea0ZMM74w1GU8zvTPXZvZk+WaVZ/WKueJK8cvskOyt2W9yonJ25QzkJuXuzSPnpeUdlmhLciSnZhjPmD2jU2ovLZF2zfScuX5mnyxMtlOOyKfKm/N14I9+u8JG8Y3ifoFPQVXB21mJsw7O1potmd0+x27OsjlPCoMKf5iLzxXMbZtnOm/xvPvzOfO3LUAWpC9oW2i+sHhh96LgRTWLqYtzFv9a5FS0puivJUlLWoqNihcVP/wm+Jv6Eo0SWcn1pV5Lt36Lfyv+tmPZxGUbl30uFZb+UuZUVl72cblg+S/fTfiu4ruBFRkrOla6rdyyirhKsuraat/VNWu01hSuebg2Ym3jOta60nV/rZ++/ly5S/nWDdQNig1dFeEVzRstNq7a+LEyq/JqlX/V3k2Gm5ZterNZuPnSFr8tDVuNtpZtff+9+Psb24K3NVZbVZdvJ24v2P54R+KOMz+wf6jdabCzbOenXZJdXTWxNadq3Wtr6wzrVtaj9Yr6nt2puy/uCdjT3ODQsG0vc2/ZPrBPse/Z/rT91w6EHWg7yD7Y8KPlj5sOMQ6VNiKNcxr7mrKaupqTmzsPhx5ua/FqOfST40+7Wk1bq47oHll5lHq0+OjAscJj/celx3tPZJ542Da97fbJySevnIo51XE67PTZn4N+PnmGc+bYWe+zrec8zx3+hf1L03m3843tru2HfnX99VCHW0fjBfcLzRc9LrZ0Tuo8esn30onLAZd/vsK7cv5q5NXOawnXblxPvd51Q3jj6c3cmy9vFdz6cHvRHcKd0ruad8vvGd6r/s32t71dbl1H7gfcb38Q9+D2Q8HD54/kjz52Fz+mPS5/YvKk9qnz09aeoJ6Lz6Y8634uff6ht+R3rd83vbB58eMffn+0903u634peznw5/JX+q92/eXyV1t/dP+913mvP7wpfav/tuYd+92Z90nvn3yY9ZH0seKT7aeWz2Gf7wzkDQxI+TL+4K8ABpRHmwwA/twFAC0ZAAY8N1KnqM6HgwVRnWkHEfhPWHWGHCxuADTAf/qYXvh3cx2AfTsAsIL69FQAomkAxHsAdOLEkTp8lhs8dyoLEZ4Nvg/8lJ6XDv5NUZ1Jv/J7dAuUqi5gdPsv5suC7m9bQDUAAACKZVhJZk1NACoAAAAIAAQBGgAFAAAAAQAAAD4BGwAFAAAAAQAAAEYBKAADAAAAAQACAACHaQAEAAAAAQAAAE4AAAAAAAAAkAAAAAEAAACQAAAAAQADkoYABwAAABIAAAB4oAIABAAAAAEAAAIooAMABAAAAAEAAAIaAAAAAEFTQ0lJAAAAU2NyZWVuc2hvdEwphMYAAAAJcEhZcwAAFiUAABYlAUlSJPAAAAHWaVRYdFhNTDpjb20uYWRvYmUueG1wAAAAAAA8eDp4bXBtZXRhIHhtbG5zOng9ImFkb2JlOm5zOm1ldGEvIiB4OnhtcHRrPSJYTVAgQ29yZSA2LjAuMCI+CiAgIDxyZGY6UkRGIHhtbG5zOnJkZj0iaHR0cDovL3d3dy53My5vcmcvMTk5OS8wMi8yMi1yZGYtc3ludGF4LW5zIyI+CiAgICAgIDxyZGY6RGVzY3JpcHRpb24gcmRmOmFib3V0PSIiCiAgICAgICAgICAgIHhtbG5zOmV4aWY9Imh0dHA6Ly9ucy5hZG9iZS5jb20vZXhpZi8xLjAvIj4KICAgICAgICAgPGV4aWY6UGl4ZWxZRGltZW5zaW9uPjUzODwvZXhpZjpQaXhlbFlEaW1lbnNpb24+CiAgICAgICAgIDxleGlmOlBpeGVsWERpbWVuc2lvbj41NTI8L2V4aWY6UGl4ZWxYRGltZW5zaW9uPgogICAgICAgICA8ZXhpZjpVc2VyQ29tbWVudD5TY3JlZW5zaG90PC9leGlmOlVzZXJDb21tZW50PgogICAgICA8L3JkZjpEZXNjcmlwdGlvbj4KICAgPC9yZGY6UkRGPgo8L3g6eG1wbWV0YT4KCTv85AAAABxpRE9UAAAAAgAAAAAAAAENAAAAKAAAAQ0AAAENAABEuc0IuLIAAEAASURBVHgB7J0HeFTFFsdPeu+EmpAQEkLoHXvXZ8GCgiLYQEA6iPIQlSJIERARERAQEARBBREVOzx7oZeEFNIIKQRI7/XNLCTsZHZTNnezdzf/+328vXPulDO/ue/L37kzZ6zc3NwqCRcIgAAIgAAIgAAIqIiAFQSKikYDroAACIAACIAACGgIQKDgRQABEAABEAABEFAdAQgU1Q0JHAIBEAABEAABEIBAwTsAAiAAAiAAAiCgOgIQKKobEjgEAiAAAiAAAiAAgYJ3AARAAARAAARAQHUEIFBUNyRwCARAAARAAARAAAIF7wAIgAAIgAAIgIDqCECgqG5I4BAIgAAIgAAIgAAECt4BEAABEAABEAAB1RGAQFHdkMAhEAABEAABEAABCBS8AyAAAiAAAiAAAqojAIGiuiGBQyAAAiAAAiAAAhAoeAdAAARAAARAAARURwACRXVDAodAAARAAARAAAQgUPAOgAAIgAAIgAAIqI4ABIrqhgQOgQAIgAAIgAAIQKDgHQABEAABEAABEFAdAQgU1Q0JHAIBEAABEAABEIBAwTsAAiAAAiAAAiCgOgIQKKobEjgEAiAAAiAAAiAAgYJ3AARAAARAAARAQHUEIFBUNyRwCARAAARAAARAAAIF7wAIgAAIgAAIgIDqCECgqG5I4BAIgAAIgAAIgAAECt4BEAABEAABEAAB1RGAQFHdkMAhEAABEAABEAABCBS8AyAAAiAAAiAAAqojAIGiuiGBQyAAAiAAAiAAAhAoeAdAAARAAARAAARURwACRXVDAodAAARAAARAAAQgUPAOgAAIgAAIgAAIqI4ABIrqhgQOgQAIgAAIgAAIQKDgHQABEAABEAABEFAdAQgU1Q0JHAIBEAABEAABEIBAwTsAAiAAAiAAAiCgOgIQKKobEjgEAiAAAiAAAiAAgYJ3AARAAARAAARAQHUEIFBUNyRwCARAAARAAARAAAIF7wAIgAAIgAAIgIDqCECgqG5I4BAIgAAIgAAIgAAECt4BEAABEAABEAAB1RGAQFHdkMAhEAABEAABEAABCBS8AyAAAiAAAiAAAqojAIGiuiGBQyAAAiAAAiAAAhAoeAdAAARAAARAAARURwACRXVDAodAAARAAARAAAQgUPAOgAAIgAAIgAAIqI4ABIrqhgQOgQAIgAAIgAAIQKDgHbBYAm5edjR1dSh9sTqJwv/Ktth+omMgAAIgYIkEIFAscVTRJw2BB0a3o8ET/aiSpX7dnU47lyVSaXEF6IAACIAACJgBAQgUMxgkuNhwAja2VrTkm97k1dKuunBCRD6tnhZNWRdLqm24AQEQAAEQUCcBCBR1jgu8aiSBAff60NjFwVItl1NLaMW4M3ThXJH0DAYQAAEQAAH1EIBAUc9YwBNOwMqKqJJ/lGncNWtrV+rY3VVnJdmXSmnZmDOUllCo8zmMIAACIAACpicAgWL6MYAHWgS8ut1Nmad/1LIYdtv7di966tUO5NHi2ice7ZoyL5TQkpERdDm1WNuMexAAARAAAZUQgEBRyUDADSIbJzfq+PS7FL1+lCI43H3saPzyEArp5aazvuTYQiZSwqkwt1zncxhBAARAAARMRwACxXTs0XINAh5ht5H/oBkUs2k8FV8+V+OpYUk7e2sasySY+rAZFV3Xqd+zaNXUKKrE5h5deGADARAAAZMRgEAxGXo0XJOA3wMvk2eX2ynt4Ea6dPiLmo8NTtvYWGlESr+7vHXWsW9dMu374LzOZzCCAAiAAAiYhgAEimm4o9WaBKysqfOE7WTr7E55Ccco4bPXa+ZoVNrWzoqmrAqlLtd5SPVUsNmTZWMiKOZorvQMBhAAARAAAdMQgEAxDXe0WoOAc9vOFDTi7WprxMpHqaJU2QWsTq42NOujrtQ2yKm6naqbSynFNG/oKSoqwHqUKib4BQEQAAFTEoBAMSV9tF1NoOVNT1PL64dVpxN3z6PcuEPVaaVuWgc40mvbu5GTi41U5cFPL9D2xQmSHQYQAAEQAIGmJwCB0vTM0aIOAh2fXklOrUOqn1w++hWl/ryuOq3kzcD7fGjMIjmIGw+/svjZcIo7ladkc6gLBEAABEDAAAIQKAZAQxFlCdg6e7L1Jx9fCdJ2teqSzBSK3jhG2Ya0ahvDoswOZNFma17nIgtowYjTbFdP44PF1awbaRAAARAAgfoTgECpPyvkNBIBz653kt/906Xaozc8TyVZaZJdCYOrpy3N392T3L1tpeq2vBFHv++9KNlhAAEQAAEQaDoCEChNxxot6SHg/+BM8uh8i/Q05ac1lHHsG8mulOH6QS3o+QUdpeqyLpbSrAeP4+RjiQwMIAACINB0BCBQmo41WtJBwMramsKmfEbWdo7S0/yk0xS/c6ZkV8zAjv2Z+WEXCuktR5rd8VYCHdh5QbGmUBEIgAAIgEDDCECgNIwXcitMwLldFwoavkxnrZVlJRSxaihVlpfpfK6EMbCrC722rZvmjELt+i6nldCrDx2n8lKsRdHmgnsQAAEQaCoCEChNRRrt6CTQ6uZnyPe6J3Q+48b4Xa9S/rkTep8r8YCf19P3TjnKLNaiKEEXdYAACICAYQQgUAzjhlIKEQh+ZhU5tpLXgVRVf+nf3ZT2y6aqpFF+A8Jc6PUdbBalRu0XzhXR7EdPUkU5ZlFqoEESBEAABIxOAALF6IjRgD4Ctq7e1HncNra9WF8OoqKLCXR2y0T9GRR6Mm11Z+p2oxwGf/2ss/Tvd5cVagXVgAAIgAAI1JcABEp9SSGf4gS8ut9D7e6dWme9UWufodI844oEvlB25qYuki88Lsr8J09JdhhAAARAAASMSwACxbh8UXstBNo//Cq5d7qxlhxXHiV/t5IyT/1YZ77GZvjvxi7Uqa+8o2f+k6fpXGR+Y6tHeRAAARAAgQYQgEBpACxkVY6AlbUNdZ60k2wcnOusNDvyN0r6akmd+RqbodsNnjTt/VCpGr7dmG87xgUCIAACINB0BCBQmo41WtIi4OLfnToMq5/oKC/Ko8jVT1JlZYVWDcrfWrG1MEu+6U0+beyFyvOzy+ile45RWYlx2xcaRQIEQAAEmjkBCJRm/gKYqvutbx1JLQYMqXfzcdtfpoKUM/XOb2jGh8f70YNj20nF1808S4d/MO46GKlRGEAABECgGROAQGnGg2/Krgc/9z45+gbW24X0Pz+h9D/YgYJGvlq0c6DFX/WSAred/jObVk6MNHLrqB4EQAAEQKCKAARKFQn8NhkBOzdfCh23pUHtFaZGU+zHLzaojKGZX94QRp37uQvFK9jXnZn3H6PMCyWCHQkQAAEQAAHjEIBAMQ5X1FoLAe+e91LbeybXkkPHo8pKOvP+cCovzNHxUFmTvkMEdy5LpJ92GOd0ZWV7gNpAAARAwPwJQKCY/xiaXQ/aPzKb3EOua7DfSV8vpewzvzS4XEMLODhZ0/If+5CTi41QNOLvbFoxHp95BChIgAAIgICRCECgGAksqtVNwMrGjsLY9mJre/n0Yt0lrlmzwn+m8/tXXDMY8e6Ft4Kp/z0+Qgtl7ODAabcfoaL8csGOBAiAAAiAgPIEIFCUZ4oaayHgGtCLAh9fWEsO/Y/K8jMpcu3TxPYb68+k0BN9n3nWvhxDR37OUKgVVAMCIAACIKCPAASKPjKwG4VA69tHU4t+gw2u++xHU6goPdbg8vUt6OZlS2//1JesrcUSf+y7SJvnxolGpEAABEAABBQnAIGiOFJUWBuBkFHryMHHv7YstT678OtHdPGfT2vNo9TDWR91pY49XIXqcjJK6aW7j5KRY8YJbSIBAiAAAs2RAARKcxx1E/XZ3qMVdRq7qVGt5yedpvidMxtVR30LPzC6HQ2e6CdlX/h0OMWfzpPsMIAACIAACChHAAJFOZaoqQ4C3r0foLZ3TagjV+2PKyvK6cx7w6iipKD2jAo89Q91prk7u0s1fbnuPH31QbJkhwEEQAAEQEA5AhAoyrFETXUQCHh0Hrl17F9Hrrofn9v7JuXE/FV3xsbmYGfzLPu2N3m1Es/mCf8rm96ZgO3GjcWL8iAAAiBQGwEIlNro4JliBKxs7a9sL7ZzaHSdGSe+pZQfVje6nvpU8PybHen6B1oIWQvyymnqrYexDkWgggQIgAAIKEsAAkVZnqhNDwHXDn0pcMh8PU8bZi7NSaeoD0Y2rJCBuW9/vBWNmBUolZ479BQlnzX+ZyapYRhAAARAoJkQgEBpJgNt6m62ueMF8un7kGJuxHw4joozkhSrT19F7Tu70JxPukmPt74ZT7/uTpfsMIAACIAACChDAAJFGY6opQ4CnUZvIHuvtnXkqv/j1AMb6PKRvfUvYGBOaxsreu+3fsTD32tff+y7xOKhGD8ei3abuAcBEACB5kQAAqU5jbaJ+sqFCRcoSl558Ucp4fPZSlapt66X17PTjfuLpxunJRbR64+c0FsGD0AABEAABBpHAAKlcfxQuh4E+Kcd/olHyauyrIRtN36CKtivsa/Bk/zpgefF2R8ebP9Fdi5PXlaZsZtH/SAAAiDQLAlAoDTLYW/aTgcOWUCuHfoo3mjC53MoL/6I4vXWrLDnLV40+d1ONc307uQoOvV7lmSHAQRAAARAoPEEIFAazxA11ELAmm0rDpu0i6xs7fTmKr50jhxatJee88MBbV28JHuV4fKRLyn1wPqqpNF+Xdm5PCsP9JXq/3xlEn33UYpkhwEEQAAEQKDxBCBQGs8QNdRCwK3jAAp4dK7eHFxkWNs7kVf3e6Q8ibvnUdt7JpGdmxiHpCpjccZ5ivlQ2U9HVXXX/F3+Qx/y9BVFFhbK1qSENAiAAAgoRwACRTmWqEkHAR7anoe413VVzYC0u3caEyh3S1nObplEFaVF1GHYW0yk+EjPuSF6/Sgqyb6g85mSxpc+CKOwAeJC2fjT+bTw6dNKNoO6QAAEQAAErhKAQMGrYFQC/HBAfkhgzatKnHC7foEykYouJrDtye0oaNgSsnX1rlkNiyj7PmWc2C/ZlTYMnxlIdwwT+1GYX05TbmYRZfmKWVwgAAIgAAKKEoBAURQnKtMm4ODjTyGj1mmbNPeXD++l1IPXth23u+9F8up2l5Tv7OYJVHQpUWN38PajDk9wkSKuScmJ+ZvO7V0glVXaoC+i7H/vO0YZacbfSaR0f1AfCIAACKidAASK2kfIjP1reeMIannDcKEHNcUJf+h333Ty7HankI8ntAUKT3PBoxEpLp48WX2Fv/0wOxfHuNt9Q/u504wNYdVtVt3wQwP54YG4QAAEQAAElCUAgaIsT9SmRSD4udXk6Nuh2nLp8BeUdnBjdbrqxu9+JlC6ygIlZvN44jt8tC8Hn/YUNHwZ2Ti6Vpvjd75C+UmnqtPGuHH3saMVP8lbpXctT6Qft6cZo0nUCQIgAALNmgAESrMefuN1nu/MCZu0k6xsbDWN5Mb+S4l73tDZoN/9LzGBcof0LGYTEyiXRYHCMzm2CKDgkWuq81/85zO68OuW6rSxbt79pS+5uF/pT1Ubv+5Jp60L4quS+AUBEAABEFCIAASKQiBRjUjAPfh6aj/4dY3x0iE2c/I/eeakqoR+gcIOBLys+0BAR99A9rlnMdk4uVNRehyd/WhyVXVG+31lc1cK7nVt5oY3FH0kl5aOjjBam6gYBEAABJorAQiU5jryRu5323smk3fPe+nSoT1MnHxYa2t+D7xMnl1ul/LUdWIx/3ykESmObhS59inigd2MeY2cF0Q3PuwrNHExuZhmDTou2JAAARAAARBoPAEIlMYzRA06CISO+4iyI3+tU5zwovoFygvEg7HVdjm27MhEyiK2K2g9ZZ3+ubasjX728Hg/enBsO6Ge0tJKmjDwX2w1FqggAQIgAAKNJwCB0niGqKEGAf75hS96rWvmpKqY36AZ5Bl2W1Wy+jfmw7FMoCRXp/XdOLUK1kSiTfnp2roUfXkbY7/1sZb09OvXFv1W1TX9zqOUk1FalcQvCIAACICAAgQgUBSAiCpEAvz8nIZ8bvEf9F/yCLtVrISlYjYygZJZt0DhBe09WrOIssbdTdPjZk+asipU8nPB8NOUeCZfssMAAiAAAiBgOAEIFMPZoaRCBPQJlOiNY6gkUz2H8fl3cqa5u7pLvV49LZqO/2Lc9S9SozCAAAiAgIUTgECx8AE2h+75PziTPDrfIrmqNoHi6slONT4on2q8fXECHfzU+OcBSYBgAAEQAAELJgCBYsGDay5d0ytQNoymkqxUVXVjzd/9yd7BWvBp/6YU2vOe7u3QQkYkQAAEQAAE6k0AAqXeqJDRWAT8H3yFzaDcLFUfveF5JlCMu65EarQOw6J9vailv4OQ66+vL9GHs2MFGxIgAAIgAAKNIwCB0jh+KK0AAf+HZpFH6E1STdHrmUAx8sJXqdE6DDM2dqHQvm5CrshDObR87BnBhgQIgAAIgEDjCECgNI4fSitAQL9AGcUEirrWdoxZFEwD7/MRep0cW0hzh5wUbEiAAAiAAAg0jgAESuP4obQCBNo//Cq5d7pRqilq/SgqVZlAGT4zkO4Y1krwNTO9hGb855hgQwIEQAAEQKBxBCBQGscPpRUgoFegfDCSSnPSFWhBuSoemehHg0aL0WSLCipo0o2HlGsENYEACIAACBAECl4CkxNo//BrbAblBsmPqA+eYwLlomQ3peE/z7ShoS+2F1yoZKlx/f+l8jJ+hwsEQAAEQEAJAhAoSlBEHY0i0P6R18k95Hqpjqh1TKDkqkug3Dy4JT07Rw53P+32I5SXVSb1AQYQAAEQAAHDCECgGMYNpRQkoF+gPMsEyiUFW2p8Vf3u9qZxS0Okil596ASlJxVJdhhAAARAAAQMIwCBYhg3lFKQQPtHZrMZlOukGqPWqU+gdLnOg6av7Sz5umAEO48nAufxSGBgAAEQAAEDCUCgGAgOxZQj0H4wEyjBOgTK2meoNO+ycg0pUFOHrq702sddpZrefiGSzvybLdlhAAEQAAEQMIwABIph3FBKQQIBg+eQW/BAqcYoFQqUVgGOtHBvT8nXtS/H0JGfMyQ7DCAAAiAAAoYRgEAxjBtKKUgg4NG55NZxgFRj5NqnqSxPXX/03b3taMXPfSRft7wRR7/vVdeCXslJGEAABEDAjAhAoJjRYFmqq3oFypqnqCw/U1XdtrW3onX/yGJq19uJ9OPH6jo3SFXg4AwIgAAINJAABEoDgSG78gQCHp3HZlD6SxVHqlCgcCc3HB1IVlaiu7tXJdG3m1NEI1IgAAIgAAIGE4BAMRgdCipFIOAxJlCCdAiU90dQWUGWUs0oVs+6fweQrZ2oUPauOU9fb0hWrA1UBAIgAALNnQAESnN/A1TQ/4DH3mACpZ/kSaRKBcr7f/YnBydrwd+v1ifTl2vPCzYkQAAEQAAEDCcAgWI4O5RUiIB+gTKczaCob+vuql/7kbObjdD7/ZtSaM97SYINCRAAARAAAcMJQKAYzg4lFSIQOGQ+uXboK9V2ZvWTVF6YI9lNbXjnQF9y87IV3Ph+ayp99s45wYYECIAACICA4QQgUAxnh5IKEQgcsoAJFHnrrloFyvIf+pCnr53Q+592pNHOZYmCDQkQAAEQAAHDCUCgGM4OJRUiEDiUCZRAXQJlGJtByVWoFeWqeWt/b/JpYy9UePDTC7R9cYJgQwIEQAAEQMBwAhAohrNDSYUIBA59kwmU3lJtZ95jAqVIfQJl0b5e1NLfQfD31z3ptHVBvGBDAgRAAARAwHACECiGs0NJhQjoFyhPMIGSp1ArylWzYE9PatPBUajwj30XafPcOMGGBAiAAAiAgOEEIFAMZ4eSChEIfHwhuQb0kmo7s4oJlGL1CZR5n3YnvxBnwd+/91+mja+dFWxIgAAIgAAIGE4AAsVwdiipEIHAxxcxgSIfwHdm1eNMoOQr1Ipy1cze0Y0CwlyECg/9kEEfzIwRbEiAAAiAAAgYTgACxXB2KKkQgQ5MoLjoECgRq4ZSRXGBQq0oV82rW7tSUHdXocKjBzJpzUvRgg0JEAABEAABwwlAoBjODiUVItDhicXk0r6HVFvEu0yglKhPoMzc3IVCerkJ/h7/JYtWT4sSbEiAAAiAAAgYTgACxXB2KKkQAf0CZQgTKIUKtaJcNTM2dKHQfqJAOfVHFr07CQJFOcqoCQRAoLkTgEBp7m+ACvrfYdgScvHvLnkSsfIxqigtkuymNkxfF0ZdBroLbkT8nU0rxkcKNiRAAARAAAQMJwCBYjg7lFSIQIdhbzGB0k2qTa0CZerqztT9Rg/B38jDObR8zBnBhgQIgAAIgIDhBCBQDGeHkgoR0C9QHmUzKMUKtaJcNZPfDaWet3gKFcYcy6W3RkUINiRAAARAAAQMJwCBYjg7lFSIQIcnl5KLX1eptoh3mEApU59AmfB2J+pzh5fgb+ypPFr8TLhgQwIEQAAEQMBwAhAohrNDSYUIBDGB4qxDoIS/M5gqy0oUakW5al5YGkL97/YWKkyIyKc3R5wWbEiAAAiAAAgYTgACxXB2KKkQgaDhy8i5XRepNrUKlDGLgmngfT6Cv0nRBfTGE6cEGxIgAAIgAAKGE4BAMZwdSipEQK9AWfEIVZaXKtSKctWMWtCRbhjUQqgwObaQ5g45KdiQAAEQAAEQMJwABIrh7FBSIQJBw5ezGZQwqbZwlQqU5+YG0U2P+Ar+piUW0euPnBBsSIAACIAACBhOAALFcHYoqRCBoBFvk3PbzlJt4W8/TJUVZZLd1IbhrwTSHU+0EtzITC+lGf85KtiQAAEQAAEQMJwABIrh7FBSIQL6BcpDTKCUK9SKctUMnuRPDzzfVqiwKL+CJt10SLAhAQIgAAIgYDgBCBTD2ZlVyZY3DCe3oH51+nz+u3ep+FJinfmUzBA0YgWbQQmVqgx/W50C5b6RbemxKf6Cv5WVRGP7/cMElWBGAgRAAARAwEACECgGgjO3Ym3vmUxeXe8kK1u7Wl2P+3g6FaQ27ZkyHZ96h5zadJL8Cl/+IFWq8C/+bY+3oqdmBUr+Tr75MBXmqW/GR3IUBhAAARAwAwIQKGYwSEq5aGVtS/4PzyL34Ov0VqkmgXJ6+SBiCkWvr6Z6cN39LWj0wo5S8zPuPUaZF9QXt0VyFAYQAAEQMAMCEChmMEhKuujYsgMFP7tab5UmEShPrySn1iGST2oVKD1v9aLJK+UZnzmPnaSUOPWdviyBhQEEQAAEzIAABIoZDJKSLtq6eFPnCdv0VqkqgbLsAb1+mvJBaF93mrFR3ha9iIW6j2Mh73GBAAiAAAg0ngAESuMZmlUNNk7uFDbpE70+m0agvMtmUIJFn9iXndPL1SlQ2nd2oTmfyKcvvzMhksL/yhb7gRQIgAAIgIBBBCBQDMKmfCGvbneRV8/76dyXC6ks73KDG7B18ST/h2ZR5onvKSvigN7yNo5uFDZ5p97nJhEoz6wip1Y11nSwtSeaTzx6PTXdg5b+jrRoX0/JgbUzYujITxmSHQYQAAEQAIGGE4BAaTgzxUt4MnHid+80IisrKs5MpvhPXqGy/Pr/oePipMMTS8jBh219ZX/Yz+9/m4mUgzr9NB+BUsEEyoM6+2Bqo5uXHb1zoI/kxpZ5cfT7lxclOwwgAAIgAAINJwCB0nBmipbQLFp95j2NOKmquDiDiZSd9RMpgjipqoBtzY3ZMklnPBM1CpRgNoPiWGMGpbKigsLfVqdAsbWzorX/DOB6Urh2r0qibzenCDYkQAAEQAAEDCMAgWIYN7KytiEbZ0+ydXYnGwdXKi/Ko9KcdCovzm9QjVY2dhQweDa5dugrlLsiUmaymZRMwa6dsGXtdxh2deZE60Fu3CE6t/dNdtCeHCa+4QLFihxatGd9dKaSrFTmT5ZWS8rcBj/7Hjm2DBIq4xFkeaA2tV4rD/YlV09bwb2fdqTRzmVNG+ROcAAJEAABELAgAhAoDRhMvsDUu8e95BLQk0U+DSNrOwepNBco2ezzyqVDe6gk+4L0XJfBytaeiZQ55BrYW3hcnHH+6kyKLFL0i5PDTJws0ClOeOX1FSherJ8enW4gJ3ZGjo2DS7Vf5YW5lHFiP106vJfKC3Oq7Y254due+UyS9lVZzgTKCvUKlDc+60Htgp20XaZDP2TQBzNjBBsSIAACIAAChhGAQKkHNz7L4dPnIfK9/gnhj3WtRdlnlpSfP6CMY1/Xmq3qYe0ihc+kXJu50IiTJxZrZjaqyvPf3LgjV8VJqbZZuK9LoCR+Ppe8e91PbsEDhXI1ExUlhXRu32LKiz9S81GD08HPMYHiW1OglDGB8nCD62qqAi+u7Uxdr/MQmos+mktLn48QbEiAAAiAAAgYRgACpQ5u/L/s2z8ym+w9rp1eW5pzkYmBQ1TIQsLbe7Ulb7b7xsbJTWdNqQc20OUje3U+q2m0ZjMp7R+dS64BvYRHxZeTKH4XX5OSxT4p8QWxsjjJiz9KiV/MZzMn+sUJr7QugSI0XEeCf4Y5/83blB35Sx05a38c/Nz7TKAECpn45yk1C5RRCzrSDYNaCD5fOFdErz18QrAhAQIgAAIgYBgBCJRauFnbO1HIqHVk5yb+IYpcM0KY0eDnyAQNe4udc2Mv1VZZVkrRH47VrE+RHuowcJES8Ngb5NK+h/CUi5Skr5aQ/6CZ0sxJXsKxK+KkrO4w6/USKGz2J/P0z1dmR9hKUH7QoGaHkODRlUQlazNm07h6f87SUQXpFCiMW/g7j+jKrgobPyyQHxqofRUVsBONbzykbcI9CIAACICAgQQgUGoB1/q256lF/0elHMnfv0eZJ78T7IGPL5RmPqoyXPh9G138S3/skap8Vb98bUvAo/MkkVL1XPs3L/E4Je55g7hQqM9Vl0DhMxdcCOXE/FVdHV9705GFo9eeRap+yG5y4w5T4u652qYG3QePXEOOLQKEMrw/4e8MFmxqStw5vDU9OUP0mfs38cbDVFyAAwPVNFbwBQRAwDwJQKDUMm4hz39ADt5+Uo7y4gKKXj+K7dzJrX7md9908ux2Z3Va+yYr/IAmNom2ra57jUh5bD65+MsRS6vK5iWeoHN75lFFPcUJL1eXQEn58X3KOL6/qonqX++e91HbeyZVp2venP1oEhWlx9c01ysdMnKtNCvE+xShYoHS724fGre0RvRb1lv+iYd/6sEFAiAAAiDQOAIQKHr4WVlZU9eX9gnxSbSzJu6ZT7mx/1Sb2t49UbO4tNqgdZMb+69mlkPLVK9baztHChq+XNrhwgsXpcdR3PaXGiROeLm6BIq+SLI83krnCdt5FTqv9D8/ofQ/Ptb5rC5jyCgmUHzaC9kqSospYqU8eyVkMmEipLcbzdzURfKAL5Lli2VxgQAIgAAINI4ABEot/DqP/5hsXb105ojbMYMKkq/t2Ghz5zi200d3YDG+RiThs9d11lObkYuJoBHLdc7ilGSmUNyOl6msILu2KqRnhgoUXlGnMR+SvWdrqU5u4LMnfBbFkIuv86m5xkXtAkVfuPsPZ8fSX19fMgQDyoAACIAACGgRgEDRglHz1nfgUGp1y3M1zVSYFkOx26YJ9to+8eSfP83C188U8teVsHF01ezWqRnATLtc0cUEtrtnVoPikTRGoAQ+voits+mp7UL1PV8MbOii1pBR7FOaj/gpraK0iM2gPFZdv9pubFg02TV/9ScbGyvBta83ptDe95MEGxIgAAIgAAINJwCBUiszKzYrMoh8+g0me/dW7JibcipMiaKUH1dT0aVETUm3oP4sPsowFrits96aCs5HUNwnM/Q+r/mAixMuBqQD9GpmZOmGipTGCBS/B14mzy636/DiiunMqscbHEmXl9S11ofHWYl4d4jettTwYNG+XtTSXwzWh2BtahgZ+AACIGAJBCBQ6jmKPFgbse23PPYHv9xDrtcIE6dW8kLJmlU2RKBcEScLmTgR681POk1JLDAaP7G45sLZhoiUxgiUtvdMZjFf7q3Zvep0zIcvEI9+29Ar5Pn17DNWO6GYOQiUqe+FUvebPAW/z0UW0PwnTwk2JEAABEAABBpOAAKlgcyc24RS6zvGCjMm/I9pJTtFmJ9Xo+uqr0DhIeX5dmWn1iFCNVyc8G28/LMHXzgbMITFSfHrJuTha0DiP321zs89jREobe4cr5lREhrWSsRsnqDzgEKtLDpvdQoUtlMqYtVQnfnVYhzGthnfxbYba1+IhaJNA/cgAAIgYDgBCJR6srN18aLWt48mz863sZ091wrxhbJJXy/TxEvRt0i2PgJFrzhh61d4+HkuTqou/SIljq1JYSJFa/tzVZmq38YIlLZ3TSDv3g9UVSX9nln9ZJ0CSSrEDJ1Gb9BE5NV+xs804p+M1Hzd/ngrGjErUHLxpbuPUval2iP6SoVgAAEQAAEQEAhAoAg4dCf4ScN+97/EwsyLZ68UnA/X7M7hMTtq28VTl0BpiDip8pBHuQ1kEWed/bpWmTS/fPtxbSKlUQKllk88jQlNb64CpctAD5q+Tl57tHT0GYo+osxBisLgIgECIAACzYgABEodg60JUHY32z6rNWvCi/B1H3yrcUVJgaYGQwUKFxod+IJYFi5f++I7f2rOnGg/5/dXRMp8JlLEeBwakbLzFZ0LVhsjUPwGzSDPsNtquqFJ85ObefA6Q65OYzay7ctthKLlRXl05r0nBJvaEj5tHOit/eK5SdzHj+bH029fpKvNXfgDAiAAAmZFAAKlluHiO3M68DN2bGylXHzbMBcRVZehAoV/OuJxQPji2KqrPuKkKq9GpAxhIqXdNZHCt/zymCS6FqzWKVC2v0wFKWeqqhd+A9hBhm4dBwi2qoQh0XKryuqKr2IOAoUdU0Tvs63G9g7WVV3R/P74cRrtejtRsCEBAiAAAiDQMAIQKLXw0vWHk2cvy8ukyLVPCSUNFSi8Eh7rhJ9QzEWK5rPR53OENSdCQzoS2iKFixN+qnFewlEdOesRSfaT/2p80FW44zOr9G59Ttw9T3PCs65yddl0cS4vzKUzq4fVVdTkz+fu7E7+oc6CH9HHcmnpqGtB/ISHSIAACIAACNSLAASKHkw8simf2dB1VVZUED/RuLzw2jqDWgUKW0jLPwfVdjm27KgJlZ92cEODxElVnVyktGNrRDLDr55CXPWgxm9dMyh8/Ur+uRM1Sl1Jhk3eJcz0VGXiYiJyzVNsC3ZZlalBv53GbpIOIjQXgfLs3CC6+RFfob9FhRU05abDVFFRKdiRAAEQAAEQqD8BCBQ9rLx7D6K2d43X85To0r+76cJvWzV/lL2630Pt7p2qN29hajTFfvyi3udN+aAugcJjrWRH/S65ZO/VVrPbRnrADOl/bKf0P3foelQvm26BksNmUJ6sV3lTZrp1SEt6+rUOkgtzhpyklNhCyQ4DCIAACIBA/QhAoOjh1GLAY9T61toXffJ1EhVlxWTn6qOnlitmfl5O1Lpnyafvw5ow+fpmKGqtRKGHdQmUnKg/6Ny+RVJrLW8YTi1vHCHZiy8nada78F08hl6hYzeTnUdLoThnFvn+cMGmxkRAmAvN3iHGpOF+bpoTR39+dVGNLsMnEAABEDALAhAoeobJLfg6Chg8W89Tw835505qzs8xvIbGlaxLoBD7KnF2y4TqUP68NV4mZOQadnCit9g4i6wbt4OtWdGzqFbMrD8V+sIWsnMXP5OYi0DhZ/Ks/r0/2dmL27wO7LxAO95K0N9pPAEBEAABEKiVAASKHjw2Tu6aTxrau2v0ZKXLR7+i3Nh/KHDom/qyaOw84mzs1qlUnJlcaz5jPqxToLDG+RbqlB/e04gU18A+LAjdYyxybqjgFj9tmH8Oyo07JNgNSegUKPlZmnU+htTX1GVe3daVgrpd24XF2489lUeLnwlvalfQHgiAAAhYDAEIlFqG0qPzreTPYn8Q30+q4yrOSKbUn9ZQXuJx9tSKAh5j23DZ4YG6Lr6gNvGLBcQjz5ryqilQSvMuU9rBjex8n+7snJ37pXgvunwtzb1E51hfCi+c1fW4wbbQcR+RnVsLoVyZGQmU4a8E0h1PtBL8LylmC2VvPkxlpVgoK4BBAgRAAATqSQACpQ5Q/Oydljc/Q05slw3/416Wn0mF6Wcp6/TPlBPzl7Bzhe+kadH/UfIIu1Vz+rGVtTWV5Fyk3LN/06VDe4j/YTf1pS1QMk9+T6lMnFQFm3MN6EWtbxtNjr4BTKiIsT2433xm5dLhLyj7zP+oMWtOajIIHbeVCRRxHQ/nzHcGmcN1w4O+NGp+kOTqsjFnKOrwtZ1eUgYYQAAEQAAE9BKAQNGLRn5gxf5oV7J1F/W72KwLn3hhhwiq6eJB5zxCb6aSrFS2diRSp2v85GYHn/bkyLZa863DPEpsSVZarWf86KyonkadAiUvg8WaebqeNZg2W0t/R1q0r6fkxP5NKbTnvSTJDgMIgAAIgEDdBCBQ6maEHEYmEDp+G9sJJS7ALTMjgcLxLP6qF/n6OQikEiLy6c0R16INCw+RAAEQAAEQqJUABEqtePCwKQh0ZgKl5g4hvjYmau0zTdG8Im089WoHum2ouFWaxfOj6Xceobwsw7dgK+IcKgEBEAABMyQAgWKGg2ZpLnee8DHxM4m0r9JcJlDWmY9A6X27F01cIR74yPvzwStn6dD3l7W7hnsQAAEQAIF6EIBAqQckZDEugc4TtjOB4ik0whcU8+B25nI5udrQyoN9ycZW3PH1+5cXacu8OHPpBvwEARAAAdUQgEBRzVA0X0d0CpQcJlA+MB+Bwkdv5qYuFNLbTRjI7EulNOPeY1RRrq7F0oKTSIAACICACglAoKhwUJqbS50n7iBbZw+h26Vse3bUB88JNrUnBo1pR49M8JPcXDE+kiL+zpbsMIAACIAACOgnAIGinw2eNBEB3QIlnQmUkU3kgTLNtAt2pjc+6y5V9ufXl2jT7FjJDgMIgAAIgIB+AhAo+tngSRMR6DzpE7JlRwtoX6XZTKCsNy+Bwv2fu6s7+Xdy1u4KFRVUaHbzlBSxbT24QAAEQAAE6kUAAqVemJDJmATCmEDhZx9pXzw4XPT62k+T1s6vlvv/PNOGhr7YXnJn/ayz9O932M0jgYEBBEAABPQQgEDRAwbmpiMQNmknEyji4lJzFSieLe1p6be9iZ1yIFwnf8uiVVOiBBsSIAACIAAC+glAoOhngydNRCBs8i52zpF4GjAPrR+94fkm8kDZZqavC6MuA8UZoXK2i+e1h0/QpeRiZRtDbSAAAiBgoQQgUCx0YM2pW7oFSioTKKPNqRvVvuo7PPDArgu0Y0lCdT7cgAAIgAAI6CcAgaKfDZ40EYGwyZ+yGRQXobWSTCZQNpqnQHFwtqFl3/UmZzcbsU9skezM+49RbiZC3wtgkAABEAABHQQgUHRAgalpCYRNYQLFoaZASWECZUzTOqJga4Mn+dMDz7eVavxqfTJ9ufa8ZIcBBEAABEBAJACBIvJAygQEwqZ8xgSKuDW3JNO8BYq7tx0t2d+L7B3E1bJ52WU0875jVFyILccmeNXQJAiAgBkRgEAxo8GyVFe7TP2crO2dhO4VZyRTzIdjBZu5JXSdcMz7sOe9JNq/KcXcugN/QQAEQKBJCUCgNCluNKaLgG6Bcp4JlBd0ZTcbm6+fIy38sqe05bgwr1yzoycno9Rs+gJHQQAEQKCpCUCgNDVxtCcR6DJ1N5tBcRTsxRnmL1B4h8YuDqYB9/oIfeOJP79i4e/nIPy9BAYGEAABELhKAAIFr4LJCXSZxgSKXQ2BcjmJYjaNM7lvjXWgpb8jzd/dg2ztrISqKtnhxu9MwCGCAhQkQAAEQECLAASKFgzcmoZAl2l7mEBxEBovthCBwjv1+PT2dM/TbYT+8URGWgm98cQpys/BtmMJDgwgAALNngAESrN/BUwPQKdAuXSOYjaPN71zCnjg6GJDC/b0IC8WBr/mdfyXTHr/xWjiMyq4QAAEQAAErhGAQLnGAncmItD1xS/Iylb84118KZEJlAkm8kj5Znvd6kWTVnbSWfE3H6bQF6uTdD6zVKOj65UgdkVswTAuEAABENBFAAJFFxXYmpSALoFSxATKWQsSKBzoyPkd6cYHW+hku+vtRPrx4zSdzyzF2CLAiUKu96SQGzwpI6mIvlkej5kjSxlc9AMEjEAAAsUIUFFlwwh0nb6XrGzshEJFFxPo7JaJgs3cEzwE/uzt3ah1oLggmPeLf+H5cs15+npDsrl3s9p/G7YwOKCXu0aQDBjSqtp+6vvL9OWiOKqswHetaii4AQEQkAhAoEhIYGhqAl2nf8kEiq3QrCUKFN7BNh2c6NWtXcnp6icOodMscfjHDNq2MJ7yWcRZc7xcfeyuzJKwmZIO/TzI3lmMpJt4LJc+nhZJFRAn5ji88BkEmpQABEqT4kZjugjoFijxbAZlkq7sZm/rcp0HTVkVKm09ruoYD4f/y2fpdOqPLIo7lUcV5eqdabBiu6fbhLpoZkn45xt+T+KO6qpuUSRbELx77llV96faWdyAAAiYnAAEismHAA50fWkfWVmLJ/8WpcfR2Y8mWyycPnd609glwWRrq+ev+dWeF7BFpJH/5lD4X1nsXzZdSi42ORN79qkqqL/H1ZkSD3Jh5w7pvbi2Yl2M+i2TPp/DxEmZesWW3j7gAQiAgEkIQKCYBDsa1SbQ9aWvmEARPwVYukDh/e9xs6dmJkWbRV33F84VUQQTKlysRB7OoaL8ptkF483C9lctcG3f0434+pI6r6viJObPLPrs9RgqL4U4qZMZMoAACFQTgECpRoEbUxHQKVAuxNLZrVNM5VKTtMujzC7a17NBbfF4KeejCyj872w6+WsmRR/NbVD5+ma2YTM7/j3cqkWJT3t5YW+tdV0VJ7HMz09fjaGyUpzeXCsvPAQBEJAIQKBISGBoagLdXv6afQYQ/4u8kAmUWAsWKG2DnOil9WHkwRaV1nVlXy6lCPaHns+a8N8cljbG5eJpR8FsfUzXu3wosLc72diLY9LQNuMP5dDOV6KprATipKHskB8EQID9WXBzc8O8K94EkxLQLVDOMoEy1aR+Gatx33YO9MqWruTRQrc44f+HjD6cq1kky9ee8BkTo0SaZfqjdbCzZoHrbaP9FO9uJdMlJQXlVMw+Q+Wxk5v5v/yrv3lMZF27L6Hs9BKsT1F8BFAhCJg3AQgU8x4/i/C+28vfSDs/CtOYQNlmeQLF2c2GXt3GYqEE6P5kkpZYRFvmsQXCx43z6abqhfFs40B3jfenzrd4sy3eVVbT/VawpTTZacWUmVxEGWwhcOb5q78snZlSjFkY0w0NWgYBkxGAQDEZejR8hYAVdZvBPvHUuArTYphAmVbDat5J/hWLby/ufpOnzo6c/C2L1s8622QLX7kTTm62LF6JO938bDtyZ2cFOTIBpbaLi5fL5wopjc0kpcXks3/8t4CKcs0zVoza+MIfEFArAQgUtY5Mc/GL/dXWfOKp0d/C1GiK/fjFGlbzTt77bBsaMq29zk78+91l2vh6rMljhLRka2M63+pNnW70pFZBzuyU6UasQ2HfqrJSi8naxopcvOwavaZFAMfrZqdBc8GSHJ5HPABcanS+yfkJPiIBAiDQKAIQKI3Ch8KNJmBlzQTKV1I1liZQ2rG1HrN3dNMZnO3k71maE43LVRYjxM7RWhOqvuMAD+L/fPR8lpIGT8tQwbYWf86Cs0X9nsmi59pqYqa4srgpPHYKjzrL7/nMjVc7R/Jma3OcPMSIwlpV1Xlbkl9B507lMrGSQ4nsE1lqFARLndCQAQRUTAACRcWD0xxc4/FP+DbjmldhahSbQZle02yWaWtrK014+8CuLMpqjSsltpAWPRvepJ91arhQ76RnawcK4mJloAd16ONODnrC9deskAdn4xFkI9m26LoufsqxRqywuCteTLB4M+HCZ3V82WyObQN3FZUUVGjEChdH0Swqb36mcXY/1dUnPAcBEDCMAASKYdxQSiECPIIsjyRb8ypIiaK47ZYhUG57vBU9NSuwZhepuKiC3hxxmlLjCqVnajfwzzZ+XV01YoXPrrTu5MKC7en3mouUPW/E0pn/ZejPVMsTaxaXhZ+G3DrEmf1zufrrXG+RxHcUnWfHBkT+nqGJapupgoi8tXQXj0AABBgBCBS8BiYloF+gRDKB8pJJfVOicb5rZ9G+XuTqKX+62LEkgQ7suqBEMyavw5n1j4e/r/ocpC/8/Q/vnaN/Pk1Txl+2PMaHBbvjMVsCerlpPke56tm6XbPBdDZzxcXSie8uaXYP1XyONAiAgOkJQKCYfgyatQf8FGN+WGDNqyDFMgTKY1Pb033PtanZPYphaySWjoowTnwTqbWmNfDdSq3YmpuOAzw1Myz+3VyFxbZ75sVS+M+XjeIUFywBVwVLh77utZ8TxDzgMysJR3Lo+P6Lmk9QCCpnlGFBpSBgEAEIFIOwoZBSBKxs7JhA2StVV5B8huJ2vCzZzcng7G5LS7/tTY7O4rePcrZtdsGTp+g82yrbHC5+uCCf5RgwpBXx+Ct8LcuXC2Pp1I/GESlVTPknp3ZdXCn0Zi/qzP55M/FS21WUW06nmU9crPAFtrhAAARMSwACxbT8m33r+gVKBBMoM8yazwOj29HgiXKE1l93p9PWN+PNum+NcZ4fPMhjr5xlUXKzL5Q0pqoGlfUNdNKIFS5Y2nZmC5Zr2UGdfDqP/tieyhbXZlrkLFeDwCEzCJiIAASKicCj2SsErGztqeuLX0g4Cs4zgfKJ+QoUOwdremt/b3L3FteelLFtt688cJyyLjbdH2YJLgyaHUK97vOlHve10Gxz1ofkYnwh/cmEyumfLiPGij5IsIOAkQhAoBgJLKqtHwFrJlC66BQo4Uyg/Ld+lagwl76dO7/tvUgfvRGnQo+bp0tWbAt4UH936nW/L4Xe5KU3mFw2Cwr31yepdPybi1RazBau4AIBEDA6AQgUoyNGA7URsLZ1YAJlj5Ql/3w4xZupQOFbcBfu7Um+fg5Cv/iBf7MfPUlpCea3rVjoiIUmnNiaoe7/aUEDh15ZK6OrmwWZZfTP52l0eM8FKspji4lwgQAIGI0ABIrR0KLi+hCwtnOkLtN2S1nzk05T/M6Zkt0cDPysnanvhUquHjuYSe9Pj5bsMKiLABeYXe/0oRtGtNEEidPlXUFWGR1cf56OsRmVygqmPHGBAAgoTgACRXGkqLAhBPQLlFNMoLzSkKpUk3fM4mAaeK+P5A+PGBt3Mk+yw6BOAny7dMgNnnTjiLbk191Vp5NpUQX03buJlMRC7OMCARBQlgAEirI8UVsDCVjbO1GXqZ9LpfKTzFOgOLrY0Ns/9SEHdo6N9hV/Op8WPn1a24R7MyIQ0NONbnyqrSaui7T7h02g8O3JP61LolwsfjajUYWraicAgaL2EbJw/6ztnZlA+UzqZf65kxS/a5ZkV7vhhgd9adT8IMnNT5Ym0s+fKBRBVaodhqYi0CbUhf4zJYD8e8gzKiWFFfTHthT6e1caIeBbU40I2rFkAhAoljy6ZtA3awcmUKZYjkCZvi6Mugx0F8iXl1fSjHuOUU4GDqsTwJhrgn366XaXD901vj25+dpJveDn/Hy1JE5zorL0EAYQAIF6E4BAqTcqZDQGARsHFwqb8qlUdX7iCYr/9FXJrmaDp689Lf2uN7EDmoXrFDtJ991JUYINCfMnYO9krfnsc/2wNtL2ZB5C/4+PU+iXzcnED0rEBQIg0HACECgNZ4YSChLQJ1DyEo9TwqevKdiS8au644lWNPyVQKmhDa/F0j/7L0l2GCyDgFdbB7p7UgCLUuspdSglIp++mB9LGclF0jMYQAAEaicAgVI7Hzw1MgEbR1cKm7xLasUcBcrkd0Op5y3iH6liti5h+p1HiP/ismwC/DTnB2Z0YOcN2QsdLSmooO9WJtCJbyFSBTBIgEAdBCBQ6gCEx8YloFegJByjhM9eN27jCtZua2dFK//XTzoY8OiBTFrzEmKfKIha1VU5sF1c978USN3ulreZRxzIoG+WJ1BRbpmq+wDnQEAtBCBQ1DISzdQPG0c3NoOyU+p9npkJlFB2+N2MDWFSP7YtjKdfPk+X7DBYNoHu97Sg+6YHEBcs2lcOOxzx8zlnKTkC8XC0ueAeBHQRgEDRRQW2JiNg4+ROYZM+kdrLiz9KCZ/PluxqNTw62Z/uH9VWcm/Wg8fp4vliyQ6D5RPga1Memd2R/LqJW5LL2Fk+exfE0ZlfMiwfAnoIAo0gAIHSCHgo2ngC+gXKESZQ5jS+gSaqYfaObhQQ5iK0lp5UTK8+dFywIdG8CPCw+bc8145uerotWWlNpvBdPj+vTaK/dqY2LyDoLQg0gAAESgNgIavyBGydPajzxB1SxXnx5iNQ3LztaAWLHstDo2tfBz9Lp+2L4rVNuG+mBPx7uNHQ+cHk4iPGTTn8RTp9z0LlV7BYObhAAAREAhAoIg+kmpiAPoGSG3eYEnfPbWJvDGuuz53eNGF5iFSYHwzIDwjEBQKcgEdrB3pyaSfy7eAkAIn5M4v2zIulkkKcjiyAQaLZE4BAafavgGkB2Dp7shmU7ZIT5iRQHpviT/eNFNefVLAp/Km3HqbCPPzRkQa3GRscXW1o6JshFNhXjDacFl1AO2dGUe4lRBtuxq8Hul6DAARKDSBINi0BWxcmUCboEiiH2AzKvKZ1xsDWXvogjMIGiH9wks8W0tyhJw2sEcUsmYCNrRUN+m8H6nFfC6GbfIfPtqmRCOomUEGiOROAQGnOo6+Cvtu6eDGB8rHkSW4sEyh75kl2tRn4upN3f+lHzm5aKyCZk3/su0ib58apzV34oyICt4xsR7eyf9qnI2enldBHkyIom4kVXCDQ3AlAoDT3N8DE/bd19abO47dJXuTG/ssEyhuSXW2GVgGOtHBvT8mt7UsS6OCuC5IdBhDQJtDjPy1o0MwOZMMC/VVdGWxbOhcpeZfxuaeKCX6bJwEIlOY57qrptV6BcvYfSvxivmr81OfIdfe3oNELO0qPFz0TTnGnEIxLAgODRCD4Ok96fFGIIFIuxhfS1slnqCAbUWclYDA0GwIQKM1mqNXZUTtXHwodv1VyLtdMBMqwGQF01/DWgv/l7PTaSTcdplIWkAsXCNSHQOdbvOix+SFkrfWlkC+c3Tb1DBVhoXV9ECKPBRKAQLHAQTWnLtm5taDQcR9JLuec/ZvOfbFAsqvN8MrmrhTcS4wUei6ygOY/eUptrsIflRPozs7vefj1jmRlfc3R86fzaPv0KGxBvoYEd82IAARKMxpsNXZVr0CJYQJlr/oFyqpf5QWyv+5Jp60LEKBNje+b2n3q86Cv5kRk7YWziUdzacd/o4iHyMcFAs2JAARKcxptFfbVzs2XzaBskTzLifmLCZQ3JbuaDDyC7Ds/95Fc2vFWAh3YiQWyEhgY6kVg4NDWdM/k9sLuntM/XaYv3oitV3lkAgFLIQCBYikjaab9sHNnAuWFLZL3OTF/MoGyULKryRDcy41e2dxFcumdiZEU/me2ZIcBBOpLgJ/dc/tYPyH7j6vP0d+70gQbEiBgyQQgUCx5dM2gb3buLZlA2Sx5mhPNBMqX6hYoNz7sSyPnBUm+zxrETjBOxgnGEhgYGkTgrgnt6fonry3ArmBBibdPj6SEozkNqgeZQcBcCUCgmOvIWYjfdh6tKHTsJqk3OdF/MIGySLKryfAoC3F/f40Q92WllTThukNUUYHD39Q0Vuboi5W1FQ1f1omCBnhUu1+QVUYbR4ezQG4QwNVQcGOxBCBQLHZozaNj9kygdNIlUKKYQNmnboEynh0Q2JcdFKh9pcYX0exHT2ibcA8CBhNwcrel0Ru6kmdbh+o6UqMKaMvECCyarSaCG0slAIFiqSNrJv2y92jNBMqHkrfZUb9T0r7Fkl1Nhnmf9SC/YPFk2uO/ZNLqadFqchO+mDmBVsHONHJtF7JFhjQcAAAEeUlEQVRzvLb/+OS3l+jLRXFm3jO4DwK1E4BAqZ0PnhqZgL0nEyhjdAmU35hAWWLk1g2vnseqeP/P/mTvcO2PBq/t+22p9NmKc4ZXjJIgoINAt7t8aPAcFrH4WkR8+m5lIh3ajd1iOnDBZCEEIFAsZCDNtRv2nm2YQNkouZ8dyQTKV+oVKF6t7GnZd70lv7e9GU+/7E6X7DCAQGMJ3D2pPV33hNaiWRaxeNO4CEqNym9s1SgPAqokAIGiymFpPk7pFyi/MoHylmpBdOjmSq9t6yr5t2JcJEX8gy3GEhgYGk3A2saKRqwIpcA+7tV1pccW0sYxp6mcLc7GBQKWRgACxdJG1Mz6Y+/VljqN3iB5nX2GCZSv1StQet/uRRNXdJL8njPkJKWwPxq4QMAYBJw9bemFzd3JtYVddfW/bUmh/314vjqNGxCwFAIQKJYykmbaD3uvdkygrJe8zz7zCxMoSyW7Wgy3DW1FT70aKLkz9bYjlI8TaCUuMChHoNNNXvTE4pDqCivYp54Px4ZTWkxBtQ03IGAJBCBQLGEUzbgPDkyghOgQKFln/kfnv16m2p49PN6PHhzbTvCvtKSSxl/3LxFm2wUuSChPgC+Y7cYOF6y6LjBxspGJFC5WcIGApRCAQLGUkTTTfjh4+1HI8x9I3mdFMIHyjXoFyrNzgujmwb6C35dTS2jm/ccEGxIgYAwCTh62NH5rD3Lxtq2u/pcPk+nXLcnVadyAgLkTgEAx9xE0c/8dvP2ZQFkn9SIr4iATKMslu1oMU1aFUo+bPQV3Yk/l0eJnwgUbEiBgLAJht3rTkDeDq6vnC2V5lNn0OHzqqYaCG7MmAIFi1sNn/s47+DCBMsr8BMrsHd0oIMxFGICjBzNpzXQEaROgIGFUAo+9EUxd7rgWzTg1Ml+z9biiHJ96jAoelTcJAQiUJsGMRvQRcPBpzwTKWulxVvgBOr//bcmuFsPyH/uQp9ZOCu7Xwc/SafuieLW4CD+aAQEXTzsat6078d09VdcP752jfz7FqcdVPPBrvgQgUMx37CzCc3MUKNbsELd1hwaQtRhElvauPU9fr8caAIt4Mc2oE13v9KFH57Eos1evwpxyWj3sBBXlllWZ8AsCZkkAAsUsh81ynHZoEUAhI9dIHco6/TOd/3aFZFeDwYUtUHz3f30lV7ayKLK/IoqsxAUG4xMYvjyUOg68durxX5+k0k9rkozfMFoAASMSgEAxIlxUXTcBRyZQgnUKlJ+YQHmn7gpMkKMFO1l2yTe9pJY/mHmWDv1wWbLDAALGJtAyyJnGbu5G/IwofpWxLe9rRpyk7LTiKwb8LwiYIQEIFDMcNEty2dE3kIKfe1/qUubpnyhZpQLFL8SZ5n3aXfJ55aQoOv1HlmSHAQSagsBDrwRRzwdaVDd16vvLtPfN2Oo0bkDA3AhAoJjbiFmYv3oFyqkfKfm7larsbUhvN5q5qYvk25KREXT2eK5khwEEmoKAu689TdzRg2wdr0yjVFYQO6eHRZiNxmGCTcEfbShP4P8AAAD//xr87CgAAEAASURBVOxdB3hURdd+N733RhJSCElI6L0X6UiXrqKoYAEUpaifvfz2LoqKXSyIFBFUQIrSewu9pvfe6+afuctu9mZ3k03du7tnvifeO+fOzD3zzn7suzOnyJydnatBhRAwEAJ23qFoP+8TjbfnxPyDpG0fasilIOg8yA1LVkZqqPLSzBgkXi3WkJOAEGgtBIY/GIiBc/1Vr7t5PB8/PnFJVacbQsCYEJARQTGm5TI9Xe182qH9vSs1JpYTs4MRlI805FIQ9BnriQffaK+hylPjTyMruUxDTgJCoLUQsHW0xOK1XeHgZqV65c/LL+P6kTxVnW4IAWNBgAiKsayUieqpk6Cc3Y6k7R9LctZDpvngnudCNXRbMvQEivIrNeQkIARaE4E+03wx5vFg1SvTr5dg9f3nUC2nzXIVKHRjFAgQQTGKZTJdJe18w9D+Hk0ikiNhgjLmnjaY8USQaFH4P/0P9zqKqir6EhABQ5VWR8DSSoZH1nSBe6Ct6t3rn7uGi/9lq+p0QwgYAwJEUIxhlUxYR3vf9gi7R/MoJ+fMNiTt0Dz6kQIUkxcGYuKCAJEq5aVyLOx/TCSjCiFgKASih3tg2ss1x5AJZwrw3eKLhlKH3ksINAoBIiiNgo06NRcCughKNiMoyRIlKLNXBGPknX4iCPKyKrBs5EmRjCqEgKEQkFnIsOhntosSULOL8tX880i5XGQolei9hECDESCC0mDIqENzImDvF46wuZreOtln/mYERdO7pznf3dix7n2hHQZP9RZ1T0soxbOTzohkVCEEDIlA3xl+GP1YzVFkzPYs/P5/1w2pEr2bEGgQAkRQGgQXNW5uBHQSlNOMoPwjTYJy3ythGDjRSwRF8o0SvDDtrEhGFULAkAhwj54lG7qBX3mpqqjGxzNOo5Dt9lEhBIwBASIoxrBKJqyjvV8E20H5QGOG2af/YgTlUw25FATzX2uPfrd7ilRJuFKMl2fFiGRUIQQMjcDoR4PRd6avSo1/v0rCvu+TVHW6IQSkjAARFCmvjhnoZt8mEmF3v68x0+xTfyJ55yoNuRQED70Vjt6jPUSqxF0swqt3nhPJqEIIGBoBd39bIS4KZApNuMvxF/OISBt6Xej9+iFABEU/nKhVCyHgwAhKOyMjKAvfjUCPEe4iRG7EFOL1e86LZFQhBKSAwH2fRSOwk5NKlVV3nUVWfKmqTjeEgFQRIIIi1ZUxE70c/Dug3V3vacw2+9RWtoPymYZcCoLFH0ag21AxQbl6uhBv3UcERQrrQzqIEeg3yw+jFtcYy+75MhH7f0gWN6IaISBBBIigSHBRzEklXQQl6+RWpOySJkHheXh4Ph71cvl4Ad5ZcEFdRPeEgCQQcPWzxWPrukJ5zJPG8kXxyLJUCAGpI0AEReorZOL6OfhHsR2UdzVmmXVyCyMon2vIpSBY+lkHRPdzFaly4Ug+3n+YAmGJQKGKZBB4YHVH+Ec5KvRhwY4/vfMsshPpmEcyC0SKaEWACIpWWEjYWgg4BDCCcqc2gvIHIyhftJYaDXrP8i+j0KGXi6jPuQN5+HDxJZGMKoSAVBAYcGcbjHikrUqdv9+LxfHf01V1uiEEpIgAERQprooZ6eQQEM0IyjsaM846wQjKbmkSlKe+iUZ4d2eRzmf25mLlkssiGVUIAakg4NveAQ9+20mlzrkdWdj0KgVtUwFCN5JEgAiKJJfFfJRyCOjICMrbGhPOOrGZEZTVGnIpCP73Q0eEda7xiuA6ndyTg1VLr0hBPdKBENBAgIe+X/FXD1XQtrzUciFom0ZDEhACEkKACIqEFsMcVXEIZARljhaCcpwRlD3SJCjP/dQJIdG3zvNvLdrxf7Lx+ZNXzXEJac5GgsBd7zGX/j41tlMf3XEa+RnlRqI9qWmOCBBBMcdVl9CcHQM7IXTOWxoaZR3/nRGULzXkUhC8+GtntI1wEKly5O8sfPnMNZGMKoSAlBAYMi8AQx+oycK98aXrOL8rS0oqki6EgAgBIigiOKjS2gg4tmUEZbYmQck8vgmpe75qbXX0et8rG7rAv529qO3BLZn45gU60xeBQhVJIRDa0wV3f9hBpdOx9WnY9lGcqk43hIDUECCCIrUVMTN9HNt2ZgTlTY1ZZx5jBOVfaRKU1zZ3hW+QnUjnfZsy8P0rN0QyqhACUkLAxt4ST27rCZmFQqvYE/lY8zh5nklpjUgXMQJEUMR4UK2VEXBs24URlDc03pp5bCMjKF9ryKUgePPPbvBiOU7Uy7+/pePH12+qi+ieEJAcAkvWd4OLr42gV356OT6adlpyOpJChIASASIoSiToahAEHIMYQZllXATlne3d4e6j+EdeCdquX1Lxy9u0Xa7Eg67SRGAuO+IJYUc9QmEB294cdRwVZXJpKktamT0CRFDM/iNgWAAcg7oygvK6hhKZRzcg9b9vNORSELy/qydcPKxEquxYk4J178eLZFQhBKSGwPjlIegx2Uel1hfzziH9erGqTjeEgJQQIIIipdUwQ12MkaB89F8vOLpYilbr72+TseHjBJGMKoSA1BDoN7sNRi2qiSi7/rlruPhfttTUJH0IAQEBIij0QTAoAk7B3RAy8zUNHTKPrEfq3m815FIQfHKgN+wcblka3lJoy5dJ2LwqUQrqkQ6EgE4EIga5Y9Yb4arnuz9PxIGfKLOxChC6kRQCRFAktRzmp4xTcHdGUP5PY+IZR35D2t7vNORSEHx2pA+sbWQiVX7/LBFbVyeJZFQhBKSGgG8YC3n/XU3I+yPr0rBjJdlOSW2dSB8FAkRQ6JNgUAScQhhBmWFcBGX1ib6wEG+gYMPKBPz9Df0SNeiHiV5eLwIu3jZYsrGbqt3ZbZnY/Bq5x6sAoRtJIUAERVLLYX7KOIX0YATlVY2JZxxeh7R932vIDS2wsJRh9fE+GmpwA1luKEuFEJAyAtZ2Fnj6n14qFa8cyMWvT1MOKRUgdCMpBIigSGo5zE8Z3QTlV0ZQfpAcII6uVvjo354aev3wfzexdwOlr9cAhgSSQ+CZ3b1haa04okw4W4jvFl2QnI6kECHAESCCQp8DgyLgFNoTIdNf0dAh47A0CYp3oC3e2FKzRa5U/IunruEYS2FPhRCQOgJLN/eA4y03+YybJfj8nhipq0z6mSkCRFDMdOGlMm2dBOXQWqTtXyMVNVV6BHVwxAu/1BgZKh98sPASzh/KU1bpSghIFoGFP3aBZ7AiVUNhZgU+mHpKsrqSYuaNABEU815/g8/euV0vBE97WUOPdEZQ0iVIUDr0dsHy1VEa+r429zxunivUkJOAEJAaAg+s7gj/KEdBrbLCKrw97oTUVCR9CAEBASIo9EEwKALO7XozgvKShg7pB39B+oEfNeSGFnQf7oFF79XEkVDq89zUM0iNLVVW6UoISBYBIiiSXRpSrBYCRFBqAULV1kXA2AjKwEneuO/ldhogLR15EvlZFRpyEhACUkNg/pcd0YYdVfJSWlCFd26nHRSprRHpo0CACAp9EgyKgHNYHwTf8aKGDukHf2Y7KD9pyA0tGHmXH2YvD9ZQ45G+x1BRTknXNIAhgeQQmP8VIyiRRFAktzCkkAYCRFA0ICFBayKgk6AwcsJJitTKpIcDMemhAJFaFWXVeKTfUZGMKoSAVBFY8FUn+EU6COqV5Ffh3fG0gyLVtTJ3vYigmPsnwMDzdw7ry3ZQXtDQgu+eSJGgzGK7J6PYLop6yWNHO8vYEQ8VQsAYEFjwNSMoEbcISl4l3p1An11jWDdz1JEIijmuuoTm7NK+H4KmPq+hETeQ5YayUiv3vxKGARO9RGqlMOPY55mRLBVCwBgQePDbTvBtryAoxbmVeG8iERRjWDdz1JEIijmuuoTmrJOg7GcE5ZD0CMoTn3VAx36uIgSvni7AW/dRNE4RKFSRLAKPrusKtza2gn65yWVYOYvItWQXy8wVI4Ji5h8AQ0/fJbw/gqY8p6EGD9KWwWKhSK28sqEL/NvZi9TiEWR5JFkqhIAxIPDk3z1h62QpqJpyuRhfzT9nDGqTjmaIABEUM1x0KU1ZJ0HZxwjKYekRlJX7e8HeUfGPuxJHniSQJwukQghIHQELCxme/bc3S3Ki0PTm8Xz8+MQlqatN+pkpAkRQzHThpTJtl/ABbAflWQ11eKJAno9HSsWOEZNPGEGpXda+G4edP6XWFlOdEJAcAg4s2eWyrT1Uel3YnY0NL9LunwoQupEUAkRQJLUc5qeMS8RABE1+RmPiafu+ZwRlnYbckII2ofZ4dWMXDRU+W3EVJ3Zma8hJQAhIDQGPQDss+qXmM3xyczr+fDdWamqSPoSAgAARFPogGBQBnQRlLyMoR6RFUKKZcexSZiRbu7x+73ncYGnrqRACUkcgIMoJ96+OVql54McU7P4iQVWnG0JASggQQZHSapihLi4Rg9gOyv80Zp629ztGUH7TkBtSoCvM/Yqxp5CTVm5I1ejdhIBeCEQMdMOsNyNUbXd+moBDa1NUdbohBKSEABEUKa2GGeriGjkIbScZB0GZMD8AUxYFilZJzqLbP9znKORV1SK5VCr92tihjaNVvepsuVGESrk051Cv8tRAbwT6TPPFmMdrUjVseOEaLuyh40m9AaSGrYoAEZRWhZteVhsB18jBjKA8XVuM1P++RebR9RpyQwrufjYUw6b7iFTISS/HijGnRDIpVY7MaQtfB7HXkTb9Oq+JRwHlEtIGjUnJRi8OQt9ZNZGQv15wHsmXikxqjjQZ00GACIrprKVRzsS1AyMoE7URlG8YQdkgqTkt/TwK0X1dRDrdiCnE6/ecF8mkVOnqbYu+fnZY3tMdNnXwFCIoUlq1ltNlxmvh6DDEXfUCHkWWR5OlQghIEQEiKFJcFTPSybXDEEZQntKYceq/jKAckxZBeWd7D7j7WIt0PfxXJr569rpIJsXK4m5ujKS46VSNCIpOaEzqwYJvWB6ecEWY+/JiOd4ac9yk5keTMS0EiKCY1noa3Wxco4ai7YQnNfRO/fdrRlA2asgNJbBnkTc/3tdLGd9KpcbGTxLw19fJqrpUb4YE2OOHsb461SOCohMak3qw4q+esHNWbKWl3yjBF/fGmNT8aDKmhQARFNNaT6ObjbEQlHadnfDMDx018P106RWc2pOjIZeaoA875lk3vsb2oLZ+RFBqI2J6dTtGslewMPfKcvVALtY+fUVZpSshIDkEiKBIbknMSyG3qGEInLBCY9Kpe75C5vFNGnJDCQZO9sZ9L7XTeP2zU84gLa5UQy41QU8fW2yY2EanWkRQdEJjMg8COzrhvs9rYqAc/S0N2z+OM5n50URMDwEiKKa3pkY1I7fo2xA4frmGzoYiKNXVNa62ynt+nbk0BOPm+Yv0rCivxkN9DsFCVof1qaiH4SpEUAyHvVTe3GOSD8avCFGps/Xtmzi1JUNVpxtCQGoIEEGR2oqYmT4qgsJIgLyyXPirrqpAKoskmxOzQ0BDnSgo4alLxtvU9Vz5TFc75TvUr0992Q09bvNSFyH+ciGennQMDg4Ko0PRQ4lViKBIbEEMoM5YFv+kN4uDoizfPHQBSRcoArISD7pKDwEiKNJbE7PSyC16ODx6TcXZz+ajWi5dd8ePdw+Eb5C9aG0O/pmGT5ZeIIIiQoUqUkXg3pVRCOrmLKhXzQIMvj32OMpL2A0VQkCiCBBBkejCmItabh0ZQekxGWdW3d+qU7awsIJMxv7YVXkvulpYsqMbxXM7R2t8sMuLtROr+NtHN7BpVZxJERQve0twg1q+49Kd/VnKZIjNr8CFrHL8eqUAuWX0hSb+FBhPTd2DJzuxDJ/OOWM8ypOmZokAERSzXHbpTNqt4whGUCapCAonCU5ekbCAFaorygQSIRAHTiRqEQqBXKhklhptHZ1rQno3ZcZB0bm467mzGkN88GgMju3INBmCcnuII17u7wE7K5nGXLmgqKIa35zPx4cncyDRyP5a9SYh4OJjgyUbuqmguPRfDn577qqqTjeEgBQRIIIixVUxI51qExQ+9dDeD8HPfzhKUi5LAon+kxMwbNZNDV0WDz2A7NRykyAouxNKMLyt+AhLY8K3BDviivHongyUEUvRBZHk5BGD3DHrjXCVXnu/ScJ/3yap6nRDCEgRASIoUlwVM9LJvdNIuHefqNpBUU69Tbtx8PXqx6raf80r27XGdfry8wjvkSV6VU56GR4esA+WlpYmQVCUkyuurMZJNjc3Wwt08rRRijWuf94sxqLd6RpyEkgTgeEPtcXAu2vczNc+dQVXD+ZKU1nSihC4hQARFPooGBQBXQSFK+Xp3RNtQyexO8OSlCVfHIKDc4UIpyPb0vH+4rMmRVDWXCzAq0eyUX5rZ+RRFh5/WR3h8e/fkY7dCcUiXKgiTQTuYQaywbcMZME86YUcPHnSNUqXJoqkVWsjQASltRGn94kQcO88Cu7dJqh2UNx9ekNmKUN2ylGhnbtnVwS1m8rsS2pZqIpGabmKu18JHn7/mMYL1rxxFVu/jjMZgrLqTB7ePq4ZEffX2/3Qt42dxvy5IC6/EsN+S+Tfd1QkjIAF+//Tk9t6wtpO8f+hrPhSrLpL06ZKwlMg1cwUASIoZrrwUpm2e+fRjKCMVxEUL//B6DX+WxzdPBvZ6YpEZm4eHREcNp2RlNYPiNZpcBomPqJpC/P8jGO4cirPZAiKrkiyk8Mc8dEwb50fl8l/pOBMRpnO5/TA8Ai0iXTE/K9q0jSc+TsTf7x+w/CKkQaEQD0IEEGpByB63LIIaCMofSf/iuK0KzizbzmyMxQkxcUtAqHtZwtuwS2rkXj0MfdfQ4+R4mSAlRUWmNd1JyrK5SZPUHwcLHF0TlsxKGq1z87m4a1jmjsvak3o1sAI8OBsPEibsvz5TixO/kH2Q0o86CpdBIigSHdtzEIz9y5j4N71dtEOCicopZmxKM9JxsWY95CZdkjAwtklDKERc1g8Et3Gm80N2vy3T8A7sEg0bOIVFyy7XZFp2VSMZHXtoPCJn5sbDCcb7XZAJ9LKMG1riggfqkgLgTtebI+OIz1USn1x7zmk3yDbIRUgdCNZBIigSHZpzEMx9y5jGUEZp0lQMmJRkZ/OQtZX4fK5j5Ge8p8ACI9t0i7ibrZzYdviALl6l2LhRwpbGPWXHfkzEO8v+U4QmQNB2X5HACLdrdUhUN3HF1RiyLpEVZ1uJIYA45VLf+8ORw/F+pUWVuHd8SdZ1GayHJLYSpE6WhAggqIFFBK1HgL1ERSuCc+dc/XiKqQm/iMo5uAYgLDIe2BppV/cjsbOpufoZIyed02j+69vdsbGrz4Q5OZAUDZMaIOevtoJYQlzS476Pk4DIxJIAwGfMAc89F0nlTKX9+Zg3bMUoE0FCN1IGgEiKJJeHtNXzoPtnrixXRRlqHtuJCsc8dzaQalBoBrXL32NpPitgsjewY+RlHthZe1Y06SZ72Y+eQ5h3bJFo5aXWuLDh/rjxIGXBLk5EJSfx/lhgL92Tx4OQvi3caigX+TC50Fq/+k3yw+jFgep1Nr2QRyObUxT1emGEJAyAkRQpLw6ZqCbLoJSwghKJTviqV1uXv0BCTcV9h929t4I6zAP1taKBGi12zalbm0rx+OrDzICJM49c+W4Fza8H43TR18QhjcHgvIjIyiDdBCUUraD0oF2UJryUWvRvnPeiUT7fq6qd3D3Yu5mTIUQMAYEiKAYwyqZsI4e3W6HW+cxGjsoJRk3GUHJ0DrzuOu/Iu76L8IzWzsPgaTY2LhpbdtYYXsWOXYGiyBbu/z1ZQTO7PEzK4KylsVC6acjFkrsrVgotXGiuuERsLSWYcWfLP6JvSL+SX5aOT6aftrwipEGhICeCBBB0RMoatYyCHiwGChuLBZK7SOeknRGUAq0ExSuSWLs77hx5TtBKU5O+E4KJyvNVcY+cBXdR4i9U6qrZfhkUV8U5tqYFUHZNLGNkNlYG7ZHUssw608xTtrakaz1EeCRY3kEWWU58xeLf/IGxT9R4kFX6SNABEX6a2TSGjaWoHBQkhP+xrWLq9ldtXDMw0kKP/ZparGwqMailUfh5C4OQJZywxnfPdddGN6cjnj+mRaAcDftXjxrLxfi6f2ZTYWc+rcAArXz72x65TrO/SPOKdUCr6UhCYFmQ4AISrNBSQM1BgGP7hPg1mlUg3dQlO9KTdqFqxc+ZZ4+csFglhvOcgPaphRuGMsNZGuXfRuCsZ/98WJqBKX7j/HIKRPb2yjnf+LOIHjeOiZQypTXe7anYW9iibJKVwkh8MiaLvAKURg3M299vD/lJIpzKf+OhJaIVKkHASIo9QBEj1sWAU9GUFybQFC4dump+3A55kMhZgp3PQ6LnAsHx8BGKz5lyUVE9dU8Xvrq6Z7IiHcUxjU1gtLr5wRklrBvsVrFhuVxuTwvWGu6xuxSOfr8koBK8uCphZrhqx6Bdlj0SxeVIglnC/HdoguqOt0QAsaAABEUY1glE9bRs8dEuHYc2egdFCU0WelHcPHsu5DLK4QgbjyYGw/q1tBi71SJxasOw8pKvJuQcpMd7zyrON7hY5oaQRn2WxJi88UZm/k8O3vZYMtkf36rUb45n49XDovdsDUakcAgCPSb3QajFtWkKNi5KgGHfiFbIYMsBr200QgQQWk0dNSxORDw7DGJEZQRWgjKDWYk2zDbhuzMk7hw+k1GUspZOHxrFhb/TvDw+A0puoKzbf+uPU7uqPmiNjWC8vCudGyL1Qx/vqS7G57ooekhlcF2W0ZuSEKejmOhhmBObZsfgXuZcWwQM5JVllV3MvfiBHIvVuJBV+NAgAiKcayTyWrZnASFg5SbHYPzp15DVVWpkFgwtP0suLhF6o3ffa+dhF9ooag9Tw64cmE/lBZZqeSmRlBiMssxcbM4KaKVhQx7pgegrXPNvJUALNydgb9uinMUKZ/R1bAIOLhaYenmHlAm/86KK8Wqu88aVil6OyHQCASIoDQCNOrSfAh49pwM1+jhzbKDotQqP/cSzp18FZWVRZCxf6WDw6bDzaOj8rHOq29IIe5//aTG8wuHfLB5ZQeR3NQICp/cin2Z+O2KgpxxcvJsH3fc19FFNG9e+epcPv7vCB3taAAjEUHXcV6Y9Ew7lTYHf0rBrs8TVHW6IQSMBQEiKMayUiaqZ0sQFA5VYf51xJx4CRUVBYykWCAodCrcvbrWieLkxZcQPUAzeu1alnvn5ll3UV9TICjHWCbizp42sLNiGeVulQPJpcKxzaAAO7jYKAJ8KZ9xW9jXjmbja0ZQqEgXgTlvs+ix/Wuix373yAUknBPvCkpXe9KMEKhBgAhKDRZ0ZwAEPHtOYTsot2nZQbnObFCaFrOhqDAOMcdfRHl5LpuZDG1DJ8LTu5fWWXr4lWDBu8eZ7Qr7FlYr+Vl2WLWkN8v+WvMlzh8bM0FJKqxksUuysC+pBO1crfHeEC+dgdiUUHBX4k/P5OFIavPYMdgzUsQJUFqxpueQ8p10bTgC9vx4h2UvtrhFOgvSFdFjWb5NKoSA0SFABMXolsy0FPbqNRUuUcNahKBwpEqKknD2xAsoK+VkR4aA4HHw9u2nAeLtD15B12GpGvJdP7XD0T81XZaNjaC42lrgo2HeuJFXgfdO5KKoosZLiXkSY1CAPaI8bNCB/YW6WKOQPY8vqGR/FdgTX4JLOeUa2DRV8EhXV8yJdMYJtpNzPK2U/ZXhSm45cxdv6sjm27/HJB+MXxGiAuDw2lT882m8qk43hIAxIUAExZhWywR11UlQ0tgOSmHTdlCUcJWWpOHs8RfAr7y0aTsKvm0GKx/DxbMMD394jLkn13xp84fFBdb4bEkf8AzGtYuxEZTa+kulPjPCCW8M9ILlrdOkYpZ8kO9VrTydKxCWMxllKKsixqLves39KAohPWq8d75ecB7Jl8iYWV/8qJ20ECCCIq31MDttvHrfAZcOQzV3UJqRoHBQy0ozBZJSUqzwVPHzHwa/wOEC3qPmXUev0Uka2O/9LQQHNgVpyLmACIpWWBolHBnkgE9u8xbZwigHKmcnQDFZbIeF5fzhuywn0suQXUrHQkp81K/OntZYsrE7815TSHMSy/DJnDPqTeieEDAqBIigGNVymZ6yrUVQOHLlZTnMcPZFFBUqtrx9/AaiQ49heOi9YyxMvnj3pKzECqse7YPSYk0XWz4WERSOQvOVXr52+GmcL2z5eVMdhe+l3MitADfwVR4LaQswV8cQJvuo7ww/jH6shlDv/yEZe75MNNn50sRMHwEiKKa/xpKeoVfvaWwHZUiL76AoQaioyGck5WXBy4fLeo0Ix/LPWSj3Wt+LBzcH4b9fQ5TdNK5EUDQgabKgI/Mo+nNKTTA8fQfkIfq5/cqxW3Ys57PKzTL8/gNfdIR/tCIVA8fui3tikH6T8iTp+zmidtJDgAiK9NbErDTy6sMISmTrERQOLo+Pcu7kK8jPvSxgPWyaPx56I4p58ChYSnmZpWB7UpyvPYMv70QERYCu2f8T4GSFH8b4IkxH9mR9XljC7FhOM9sVTlr4LstJdixUUC7eIdNnHGNq4x1qj4d/6KxSOf16Cb6YF6Oq0w0hYIwIEEExxlUzIZ29+kxnBGWwlh2Ua8xItuWCgcmri5EQ9yLirlwV0BwwwReL3+0ES+aeuX9jMPatD64TZSIodcLTpIfudhb4ZpRvva7P+r6Ex2+5lF2uIiycuCQXmVZW31GLgtBvtp8Kkn8+icfhXzW90lQN6IYQMAIEiKAYwSKZsorefWfAOWJQqxOU9j2zEdwxFR8vfw9ZqQpvoefX9EBwhzb4YmkvVLBdlLoKEZS60Gn6MwdGFFeN8MGwQPumD6ZlhKRCfizEXZsV7s2XmRu1sSZl5jFPHt/QHY4eCnspOdtB+vCO0yjK0Uz+qAUKEhECkkWACIpkl8Y8FDMEQXH1KUW/CYnM26Ea6Qlp+HDZuwLYnKBcOzYQFw971ws+EZR6IWpyAx5u/53BXpjavsauosmD6hggnx0B8aMg5bEQd2/mR0XGUCIHuWPmG+EqVS/vy8G6ZxQ7gyoh3RACRogAERQjXDRTUtm770y2gzKw1XZQrGzlGDglHvbOil+XWamZeO+xtwRI5788DMf/VLge14cxEZT6EGqe59x4+ZneHljQWTMnUPO8QfsoPPQK31U5kHRrl4WRlyxmjCvFMuuNCEQMqsk4/ev/ruLK/hwpqko6EQINQoAISoPgosbNjYB3P0ZQwluJoLAvu56jk+HdtiZwlTpB6dL3LlhU65f5mAhKc38S6h5vcTdXLOvpLgRxq7tlyzzleynx+ZXIYCRlHUuoyI+GbrKovIbeY3H0sGbHO91Uoe2LsiuE4x05BbdrmQ8CjdqqCBBBaVW46WW1EfDuN4sRlAGtsoMS1T+D2Z3wvDw1RZ2gtO8wD04u7Woe1nFHBKUOcNgjHs/E0dqC/cngYKW4iutqMmZD4XCrrdBGVb/VhvV3YOPccrKq+8Wt+DSrVM4CyJXgKMtPtCe+CJezy5i7ugxWVtpj57SEagPv8sfwh2tSMRz6JRU7Vyni/LTE+2hMQqA1ESCC0ppo07s0EPDuN5sRlP6aBCWVefEUNZ8XT1j3bIT31AydTwRFsSTc3oOTCTFBYHWBXNSQCU4UFDJF25q6WhtGMPg4rKtJF57PaNuNAmy6kovdsQWqkPy2trawsbFp8bnL2Jo9urYrXNvcehfbzvlsbgwy4yj2SYuDTy9oFQSIoLQKzPQSXQh492cEpb02gnKVEZTmOUfXRU64TgmX8/HZ868K6hnTDgrfTRCTCfFug/DsFuHgHjGKOmuj2p1Qytj11g5FfVFcda2hucnjnHyQ5huMorahzHPGFS6ujsKfo5MDXnnmS3y3eotAUDhRackSMcANs96KUL0i9mQB1iy5qKrTDSFg7AgQQTH2FTRy/X36z4FT+35adlCaTlB4ThJ+rBMUJT7WUULGXYl3/WyNvX8/KohamqAIxxi3yIKw88CPNVTkQUEYtB+H1CYTCjJiz/pSaQUELK0gi2S2Sd16QNaJBUOzs9P5Um6T8n/PfoX33/ipxUnKne9EIqyfq0qX9c9fw8V/m2/XUTUw3RACBkKACIqBgKfXKhDwGcAISljzExR7lwp0GZoGd1/t291VlRY4ts0fKTdycWz/I4IytQkK//63ZrYU1my7wka4AjbsnsvW7/if0CfEzRbzuvmyHQrFToRgcyHYU9TsaNTIZAYz8qTPWwMR4Oy2bVvI+g2ArEtXwMGhQQN8+v46PL/ic8Eexa4OQtOgQdUauwfYYtHPXVWJAQsyK/Dx9NMg41g1kOjW6BEggmL0S2jcE/AZcCcjKH01dlCKU66gqlj7zoeuGXOXVEv2H0v23dJ3Shwc3Mq0Nq2Wy5ByMAjl6U4oLEzGz1vnC+0WjFqIKP9wESnRtUdx3xePCX2GBjlh4x2hWt9DwiYgYMEWkR+R8D+bW9dSRjYzMpowaD1d+QcotB1kfKekazfA2bmeDnU//um7bXhswTvs82jJpmErGNDW3UP/pyMXBqH/nJrIsXu/ScJ/32pm5NZ/RGpJCEgPASIo0lsTs9JIF0GxzbkOm/I8RjgY6WC7Fla3iIeyzq98h4M/46SEG2TyK/+O4cUyKAOWHZIVFfX/Vlmg8nQI5FmKL5/s/GR8vG6e0OLJCYsRFVBzpq/erfY9EZTaiDDglYRCnVTwL2Z1ea1n6n1kSiKibG9dkwup+sxpVP/wHVDd3Dl1mN5BQZB156SkO+DmVntiTar/+ft+3Df7Zaa3rNlIipWtheBabO9aEzn24xlnUJBZ3iRdqTMhIDUEiKBIbUXMTB+fgXfBqV0fjR2U8Mo4uFUXNAiNtLwMVMmrhD9YVSJ0Sh4srGsiVVSUyHB1B5CXIr/VTo6C4gwcPP6h8J5Q7yDYWNmgoqoSlVUVwrXi1rWSyZT31dU1Yxr1Doo18/5QkoFbVxWZqE0WlO3U5Kq26s8atGL6Na6+dhXVqz9nWR6bMXS7f4CClLDdEnh66qdII1vt3XMKcyY9g4rySga3XZN3UnpM8sH4FSEqbS7uycb6F66p6nRDCJgKAkRQTGUljXQePgPvZgSlt4qguLp3REDYNFhXFQPyChWR4MRDzn4986u+ZcB4P3Ts7y40z0gsxc61iSjMFX/JVVTkI/Hmen2H1GjXmgRFbmmDKmsHVLI/ftW8t1fJr7DIp9cyS+HuYYe5Y9hOBCMWMltOSJiBp5JQ8Ktyy0ljZhIRJCdB/snHAD/eaWrx8VWQErZbAnbfmuXU8cu4Y8wKFBWWMONZW5Y5m235NaLw5Xp4TRd4BdcY6v7w6EXEnW4YmW/Eq6kLIdDqCBBBaXXI6YXqCNQmKC5uUfD06a/epNH3rp42mLowFKf3ZuHsvizItWSDq4ug2LEzJBtm0MLdb/m97a17W3aepJT19HPA//pr/7KrtrASkYkqa3tRXSvRsOEEpIZo1G7Dx9SnHD6XgCPnExHM0gp99pD+pE6fsVutTXY25B9/AOTnNf6Vnl7MpqS7QEzAdk0MWa5cisfkEUuRmZEnHPc0hqSE93fD7LdrjiFTLhXhqwXnDTktejch0GIIEEFpMWhpYH0Q8Bk0F06hvVQ7KA5OQfD1H8m8XRR2JVaMHFizn408kJg1SzBsxbwruL0Jl3O7FO5Rw+tCG+Fe0VaQ8T7svN6SfT8r6rf6cjn742PmFuXi1T++EFT9chwzPAzzgZWdA/tzgqW9k2pHojZR4GSj9g6GUGcEQ13Odz0MUU5eSsa+M3HwZilsvn/MCAlKURHkK9nRW3paw+FzdashJUHBDe/fgj0S4tMYSVmG+LhU2LKdFEvLurNm11Zl7kcdENKDLeqtsunl6zi3M0tZpSshYFIIEEExqeU0vsm4sBgoTiE9cHPnVygvUPxDe9c9qzHUKR/e1fX/cpZb2EDO7EZUV0YIOCmo+bMW7qv58cgtOb8XjkvYNSMrCa8/M1QA7sVvtiBq4FjjA1GLxjHX07D7+A04sZOAdcuNjKCUl0P+2SdAXKyWmekQOTkrPG+4sSvzxJHy0VVmRi6mjl6Bi+duCMc9+obG9wt3wIKvO7G5KTDITyvHyllnyLVYx0eCxMaPABEU419Dk5hBby9L7LmZKyRf83JywcuT5sLf1QOZDm1RGdgFFTZOaqTjFgHhxISRDNW/2I1AIiv1Ot57PFro+dz3O9Cp322NGEV6XU5fScV/p27C2R74dZkRERS5HPKvVgOXLtQPqoMjZJ27AJyUtA8HM+yov49EWuTnF2H2xGdw5ECMQFKs1TyWdKk45bkwdB5TY9C789MEHFqboqs5yQkBo0eACIrRL6HxT2BooD0+uc0HGy7nYMVuZhTJnGTcHZzw0sS7EeThjVjnaFRED0elXfO6gHLkTJWg7Dp2A+dupKFjW+Cde42HoFR//y2qz5zS/aHmXjA8misnJZEdmD95w45IdA/c+k9KS8tx38yXsP3Pw4JNSl0kxcXbBo+u66rKWlxeJMeH00+hrNB41rb1EaY3GjsCRFCMfQVNQP8gZyss6e6GaeFOWHsxB4/tSEIVc+V1YbYgL068C+28/BDnEI5yTlIcmdVnMxZTJSi/7jyH1KwCjO9ZjUXjmjt2SDMugNpQ1X9uQfWuf9Qkt26ZO7QsuqOClESx3S49dhs0B5GmpLKyCosfeBu/rtkhkBRdSQZHLw5C31k1gdmOrEvFjpXx0pwUaUUINBMCRFCaCUgapmkItHG0wqKurrg7yhm/X8nDw9sSUMG2UhzZL+bnx9+JSN8AJNiFoCzqNlS4NJ83hikSFB6l5fMNR1HOvvw4OeEkReqlet9eVG8Su3vLOBnp2RuyjszugrtEm2jhcXWeWfopPv9og9b8PfYujMCv7wZre8URlryyGp/MOYu8VO2Rkk0UJpqWGSJABMUMF12qU3ZjHjeLurphQWcXlsY+H/f/GS+ksLdnv6CfvX02OvoHI9kmACWRt6HcI6RZpmGKBCW/qAzfbj0p4PP2PXJ0CpI2Qak+fQrVa74XDFtlEcyFloea57Yl9syAxozKO6/+gNdf/JaRFGvGx2rinAy9LwBD7q8h5We3ZWLzazfMCBmaqrkiQATFXFdeovPm8UUWd3MTdlP+iy/E3C1xKKmUw9bKGk+PnYFubcOQZuWLgvBhqPBhhpFNLKZIUG4k5WDL/ksCMtyDh3vySLVUX78O7GLhfRkhEZLyOTpJVdVW0eurVb/jyUc/ViUZtHGwxGO/dYO9yy1bG8Y1P78nBhmxzRC4rlVmRC8hBBqPABGUxmNHPVsQgYXsuIfvppxJL8aczbEoLJezmCeWWD56OvqERCDT0hO57Yagwp/ZJjShmCJBOXohCYdi4uHFwmX8IPUYKGXsmMKEj28a89Fc/8suPHLvG8xT2gLD7w/FiEeYpfOtcnlfDtY9c1VZpSshYNIIEEEx6eU17snd19EFixlJuZlXipmbYpFXVsWSA1rgiRFTMbB9NHIsXJEVPAgVQSzJWyOLKRKUX3bEID2nEMM7V2P5ZOMwkG3k8plst3/+PoL773oJyzb2gaPHraSJbPfk6wfPI5lFj6VCCJgDAkRQzGGVjXiOsyOdGUlxRXZJBaYzkpJVUgkLFkF28W0TcVtkVxRYOCE1oD8q2/Vt1CxNjaCkZRdi7T8xAhbv3CtnbsbStj9p1KKZSaetx35Hiu051WyvH87Dzysuq+p0QwiYOgJEUEx9hU1gflPCnLComyuqqqpwx8abSCuqFDLCPjR4HMZ07IkSmR0S/fqiMmJwg2dragRl57HrOH8j3bhz8DR4FU2vQyVLlPnrpU9RXFmomtw3D59H0nnaPVEBQjcmjwARFJNfYtOY4JhgB0ZS3OBoVY2pG24iqaBCiPg9b8AoTOraDxUyK8R690Fl1PAGTdiUCEpZRRW+/uMEKph78SNj5JjYm3ZPGvRhkFDjmIwjOJxSExMm4XQhPpt/XIg629D8PRKaFqlCCDQIASIoDYKLGhsSgSEB9gJJaeMgE0hKbF65oM6dfW7DjJ6DWJh8Ga6590RVp5HQN+uvKRGUM1dT8e/Jm7BjJgtrHq9iMWQMuVr07sYiwHdP1l76hHmv1eyWDHCdgvvHvYPrV5OEgG5EUhqLLvUzJgSIoBjTapGu6O1rJxz3RLpZYSo77rmarQhWNb3HINzVV5FH55pLF4GkyK0d6kXMlAjKj9vOICuvGKO7VePxCWQcW+/iS7TBmfSDOJq6W6VdoFM7jGt3J3Ky8zF93FM4feKKQFL0TTKoGohuCAEjQ4AIipEtGKkLdPK0EWKl9PSxwTRGUs5nlgqwTOzSF/cNHC0c/Vx3jGYkZQSq7FzrhMxUCEpsSi42770ozPXD++WI8KfjnToXXqIPy6vKmO3JJyitUsY5kWFy+3nwcVAEaisqLMFddzyPvbtOCiSlrvw9Ep0iqUUI6I0AERS9oaKGUkIgzM1acEEeFmiHGZtu4lSa4h/00dE98PCQ2wUj2pv24UKSwSon3fl7TIGgcJuTH7edRX5RKYZ1rMaTU2n3REqf1YbociJtL06yP2UJcgnHmJBZyqpwLS+vwIK7XsMfG/4TSIqu/D2iTlQhBIwQASIoRrhopLICgQAnRf6eCe0cMPv3WBxJLhYeDIvsgkeZG7IFC3QVbxuC0g7DUeXmrxU2UyAo/52MxemrKXBlJ1qfP1wlXLVOlgnzy6xxON4LMWnuyC62QW6pDcseLYObXTnc7MvRwTsfA4Iy4O2o2JXSNQ7Jmx+BkspiwXOnQq44tpSxvcCp4Q/A074mSaDyrVVVcixb+AG+/3Kr1vw9ynZ0JQSMGQEiKMa8eqQ7POwshbD4syOdcNcfcdiXoHDLHBAWjSdGToGVhSUSrQNRHDkMVZ4hGogZO0FJySzAb7vPgyece4rtnAxlOyjaSpVchk0XgrD9ahvw+/pK/6BMzO1+A3ZWVfU1pefNhMCh5B04l3lUNVo712iMCL5DVa99w5YcrzzzJT5862eN/D2121KdEDBGBIigGOOqkc4iBOytZEJY/PmdnHHv1njsjC0QnvdmIfFXjJ7GQuRbIcXKDwXth6LKV5y/x5gJCv8V/fOOs8jOL0HfiGq8OFP70U5JhSXe2x+NG9kNy3Pj7ViG5YMv0G6K6NPWMpWC8lz8dvlzVFVXCi+wgAWmRz4EV1vPel/48bu/4qWnPmf5e6xhZyfhxEv1zoQaEAJiBIigiPGgmhEjwJMMLujkgsf+ScDWa/nCTLq1bceSDM4Ukg1msPw9OSFDUBVYk7/HmAnKwbPxOHYxSXAn5kc7ns6ai8d/ZX90MApnU900H+ohCXQtxrO3xcDWUjv50WMIaqIHAnviN+NariICMG/ewaM7BgeO16Onosmab/7C4w++B+5+bMtyG8lYtGUqhICxI0AExdhXkPQXIfAAIygPd3bFc3uTsf5SrvAsuk0Qnhs/G/bWtsi2cENG0EDIgxX5e4yVoKRmFbKjnXOQy6vx2Hg5xnbXfrTz1+UArD8XJMKIV3ydStErIAvRPnmwYuTjaqYLDid4ITFP0zV7cEg67uvJsg5TaREEskpSsenq1yyOj2INrSysMTNyIRyttTDOOjTYsnEvHpjzKmshI5JSB070yHgQIIJiPGtFmuqJwJ0dnPFIFze8ezgFP57PEXpF+Abg+fF3wsnWDvkyJySz/D3VYX1hjAQlp6AEv+06j5KyCgyOqsbT0+SCa3VteMoqLbHi7x4sE7SV6JG/SwmeGXYODtaK4wTlQ95+5aFIXEgXu2ZbsB/jr48+BR9Gaqg0PwJ/3fgJSYU3VQN38xmI3n6KmD4qoZ43/zH34zmTn0FlhZxIip6YUTPpIkAERbprQ5o1AYGp7Vn+HpZk8MtTGfjqTJYwUqiXH16acBdc7B1QLLNHvE8fZDLvnvcejxaeP/f9DnTq17gvhiao2qCuBcXljJycQ0FxGbqHVuOl2XJmY6N9iL+vBOC3GPHuibt9BSMnMfB0UHiK1O5ZKbfAxwc74FyamKQMYbso82gXpTZcTa7H51/D9ti1qnHsLB0wq8Mi2Fg2PgzwiaOXMG3sChQzt3MbG1tYsAzgVAgBY0SACIoxrhrprBcCY0MchFgp6y9lY+XxDKFPW3dvvDzpbrg7OLH8PdY4KvPHu5/OF55JnaCUlFViPfPYyc4vRiSL2/X6XVWwt9ENxYs7uyKh1pHNg32uol/bTN2d2JO0Qns8u6Mbcz+uaWZnXYWVE47B0kJNWPOY7hqBgLxajo1XViOnrGY9BviPQUev3o0YTdzl8oU4TB65FFlZ+bAlkiIGh2pGgwARFKNZKlK0MQgMDbQXSMru2Dy8fThNGKKNqwdeYSTFy8kVyXk5WPTzJ4JcygSlnAVj27jnAtKyCxHkBbx9bxXbCdKNSE6JDZb91VPUwNqyGh8xkqGP6zDfRTmd4i7q/+SQ80KcFJGQKo1G4ELmcRxI3qbq78Y8dqZFPCTE71EJm3ATH5eKySOWITE+jZIMNgFH6mo4BIigGA57enMrIdDXT5G/50xKIV7anyq81cfZle2kzBXihyz8+VNB9sLqTYgeOqGVtNL/NVVyOQtjfwkJaXnwYScv786rglc99pP7Yn3w7Ykw0Uu6+2fj0f6XRTJdlX9v+OKHU+1Ej8dFJmNGpziRjCqNQ6CsqhTrLq1iIe0VwQX5KKNDZiLYJaJxA+rolZGeg6mjl+PS+ViBpFD+Hh1AkViSCBBBkeSykFLNjUAXL1shyWBCbgme/jeZERPAw5EZ0w4dj9f+UtgAvDxvOqIXvo8q1zbN/fpGj8fD2G87dA03krPh5gi8c08VAuoPjYEfT4di93VxBNIHe7PjHRaATZ+SWmCPZ9gxj3rp6JuHZYMuqIvovpEI1A7K5u8UgvHt7m7kaHV3y88rwqwJ/8PRQ+eY4awdi5ciNpquuzc9JQQMhwARFMNhT29uZQTCWf6eRSxWSmFpOZ7YmSiyseCqbJoWCsvocSgd8zjk3qGtrJ3m6/IKy7D1wGVk5hbBl4Ux4YHYQnz0swF5nwVmq23o+saY08y9WJmETvN96pIqFv7+4d/7iqLOerHAbW+PPanejO4bgUBOaSY2Xv2Sff4UUXplLCjbHRHzWVRkn0aMpl+XkpIyzJvxEv75+4jg3UNJBvXDjVoZFgEiKIbFn97eyggEsvw9PKCbFYvYuWhHIirVLEE5QRnS1glHHXujYPijkAd2amXtal4Xz45z/j54BaXllegaAvzvDmZzohmipKZDrbuntvVARpHYE+TTyUdh34DQ9dxQNoXtpCgLdzf+fMoRlj6AgrYpMWnMtbZbcZRHTwwKHNeYoRrUp7KiCgvvfxO//bRTICmUZLBB8FFjAyBABMUAoNMrDYuAJ8vfs7ibK7zZ9/eCv+NRXqXYlVASFK7dKbuuyBq6ENXtmu5R0dDZnrycggNn4tgv7GpM7lON+SPlzHtG/1H4bBZs7C/aIbJhwdg4uWhI4eHxz9dyN35zDMVDaQiGtdvezLuEnXHrVWJbS3sWlO0RZrjcAPap6t3wGx7Y739PfILVKzcymxQbgag0fBTqQQi0DgJEUFoHZ3qLxBBwsLZg3j2uCHe1wDyWv6e0Ui4c8fAdFGU5Z9MBqf0fQnX0UKWoRa+VLLfOrmM3cCkuAzbMTGDx7XKM7KLfkY66YuVVFsLxjLqM59V5q4HHM58ficDRRLHBy0sjziLIrUh9aLrXE4FKeYWQb6ewIk/Vo7ncilUD6nnz1svf482XvwM/6qH8PXqCRs1aHQEiKK0OOb1QKgjwdCWLu7qhm5cV7tsahx8nBQtHPOr6XbEORWzP+ZB1b9kt+PyiMvx54ArScwoFD53nZsgR4d9wcsJ1LyizxpKtvdSnAW4/soAZyTak/Mi8eGrHUfkfi0Ab7lnQkGGo7S0EjqXsxumMgyo8PO18MTX8AZY3pwHbY6reTb9Z/ckmPL1kpWA0SySl6XjSCM2PABGU5seURjQyBOZ3ckV/P2tmpGiJ7r41NhfKacRZBuByl3mQ9ZumFDXblW+5n7ySgqPnE8E9djqzwK9PM3sT95qNnAa/K6vYVghx3+COenRYNugiOvoqchzp0Zya3EKAG8ZuYoaxVSrDWBkmhN0DP8e2BsVoHbNHWTjvTSHaLCUZNOhS0Mu1IEAERQsoJDI/BO5m+Xu4h08bR+1x41MsvXG2w92wGDK32cBJysjHnhM3kZVXDGfGi+4fLsfobtXsF3XTXpHPdlB4kLYqeRMH0qIGj6PC46lQaRgCW6//gJSieFWnCPcuGNp2kqpuyJvtfx7CvdNfZIknIdikUCZkQ64GvVsdASIo6mjQvVkjMI3n72HGs+1crbXikG3hiqOhs2E5+iGtz/UV8iR/+07H42JsBiMj1RjVtVogJw3x0qnrXemFdnh6uyJbc13tGvPs8YGX0MVPkYCxMf3Nsc/l7NPYm7hVNXVuGDuDGcbat5JhrOrFddwc2ncWM8c/jTL22eSxUoik1AEWPWo1BIigtBrU9CJjQOD2UEchyWBHT+1JbopYksF9gdNhMf6JBu908OBw526k4eBZZpTL3IdDWNiLRePk6Ni2cbYmuvDMLbXB0j97ajzu2qZhxCIm1V3kCcQHpHD3GrDWKSiuLMT6y1+grKom/szgwPHo4NEyBLJOZep5GHP6GqaMWo6C/CJKMlgPVvS4dRAggtI6ONNbjAiB29raM5Lihl6+4jgiyilUwhK7/O4AJi6HhZX23RZlW+U1OaMA+5jrcGpWAexsZLh7iJy5EDfMfVg5Vn3XkgpLLPqjj6hZoGsxXhl5RiSrr7LqcCSOJ3mImj1/WwxCPQpFMqroRiCtOBE7Y9eDExVe/ByDmO3JXMjY/6RYrl9NZPl7liItNZvy90hxgcxMJyIoZrbgNF39EOjXxk7w8BkUYKezwz+eE1A9YRlkDixBjpbC90VuJuXg+KUkpGQWsCRwwKCoajzA4pp4u2jp0EwiHgV2wcZ+otGcbSuFRIEiYT2VN/7rhKuZ4qQ/r446gwCX4np60mN1BErZ7snBpG2IzbssRIx1s/VSfyy5++SkDEwZuQw3riULNimWltrtsiSnOClkcggQQTG5JaUJNRcCXVkkNx4rZVSw7iBau91GonLsUsjca/LeVDHPnMsslsmJS8nIzi+BtaUMI7rIMa2fXK88Os2h/+ItfVBcXvPFwg1vV085zAK+6X+cxO1YuD2LevlwwnG42Faoi+heTwTyyrLhaivekdKza6s3y87Kx7RxT+LsyasCSaH8Pa2+BPRChgARFPoYEAJ1IBDpbiMYzk5qxzL16Sh7nQajZPTjqPQIwrnraTjF3IYLS8rhYCvD+J6KoxyPJrgN63htneJX93TGzWzxS9+7/QTc7cvr7Kf+cOHmviyAXU2MDnvrKnw66ah6E0ndF1UUYHf8JthZOmBUyHRJ6WaMyhQWluCuKc9i357TAkmh/D3GuIrGrTMRFONeP9K+FRAIcrYSXJBnRYi/8NVfvdemJ9bZj0WspT84GZnStxrjesjhqN2MRb1ri9yvPhaOw/Hio4SGBFkrLLfCY1vEYf5D3IvwwvCzLaJvcwz6b/xmXM2NEYa6t+Ny2FiKd3+a4x3mNgb36llw56vY8vs+2NrYCuHxzQ0Dmq/hECCCYjjs6c1GhIC3PTM8ZXFS5kWLbTLUp3DWsTNKh45Gz9uC2bGO+pPWv//jYiB+vyAOAjYuMhkzOsXppcz+OB98czxM1LZfUCYebGA0WtEALVhJL07CH9e+QzX7Hy/j290Nf6cQ4Z7+0zQEqlgKhiceeg9rvvmL8vc0DUrq3UAEiKA0EDBqbr4IOLH8PTxOyiNdtBvFCsiER0I2ajRk7cMNCtSVTBe8+V9HkQ4Nycfz4YEonE11E/W/r+d1DA5JF8mkUtl87VtwkqIs/dqMQmc4LCVWAAArdklEQVTvvsoqXZuIQDXzkX/p6dX4+J21lL+niVhSd/0RIIKiP1bUkhAAs3dlmZDdBDdkG127JCGhkI1kJCVaTBBaEz7uybNka2+RoSx//wvDYxDirnB51aVPcYWVkMundiTahtqw6Bq/ueXXcmKwJ2GzaNj2bp1xW9BkkYwqTUfgw7d+wcv/W00kpelQ0gh6IEAERQ+QqAkhUBuBBzu7Ch4+LrY1RqSiNv4BCpLSzXABub44GoEjCZ4itfq2zcRDfepOGrjlUiA2nRcfDwWzDMYvskzGUis8Q/C6y6vADWTVC3flnRH5sLqI7psJge+/2oqlD78PS0srwXiWos42E7A0jAYCRFA0ICEBIaAfAnOjnIXdFF8HHVspXt7suGcMZL3FQdP0G73prW7mOOHV3Z01BpoUlYgp0Qkaci44nOCFL5mBLY96q1647Qm3QZFaOZH6H06m79NQiwdCm9fpSVhZ6BdIT2MAEtSJwOb1/2H+Xf8nBJyjJIN1QkUPm4AAEZQmgEddCYHp4U4CSQlxsdIOhourgqQMHKT9eQtL398fhXNpYlsS/srpneIxODQNzjaVggZllZY4meyBb0+EobJWkkFfp1K8Nvo0CzRXi7W0sO71DV9YnoffLn+OymrtcVkmtZ8HX4fA+oah541EYM8/x5kb8nOorJTTTkojMaRudSNABKVufOgpIVAvAuNZ/h5ulxLloePXur2DwnB22PB6x2ruBqkF9uAxUXj4+9qFB28Lci1iHkdy8N2W2jYnvD2Pfrts0AVE+eTV7m7w+u64Tbied16nHgP9xyLaq5fO5w19wAlRblmWcJzEYIGjjQu87P3Ak//pUwor8lFQnsvWopDl5imFnZU9nKxd4WTjyhIH6o6zU9/Y3HOJB4ErYuPzoy55tZzFgrGDLUtGyGPCODE9rS2055aqb+z6nh8/cgHTxj6JkuIyyt9TH1j0vMEIEEFpMGTUgRDQRGBEWwfBw6eHj47AJ+y8XvDuYcazsNBht6I5bLNIzqS4Y+WhDhqJ//QZfHaXWIwOT9Gnaau2SS2Kx5brP9T5zkj3bhjSdkKdbZQP8xlx+O3SKmVVuHZiXkB924xAfP41nM04hJSiONFzXqnPW4jn4LmQeRyx+ZeRU5qh0V8paMNy9HTxHoAgl/ZKUb3X3LJMXMo6jeu551muH7ENjnpnC1jA2yEAwS7h6OjVu9mPvS6ej2Wh8ZciO7tAiJVi0cqfb/W50r1pIUAExbTWk2ZjQAQG+NsJ3j0D2VVXkQ0fxYjKKICltG/NEsOOeb453h55pTp2eWopY2slx51db0rSrZjvGGy++g0ySmqIE/8S5jsR+eU1GZs97fyE3De1pqa1Gpd/BTti14me9fcfLexMXMg6LpKrV6aGP8B2Udqoi4R7eXUVzjBScyb9ICrk+kfv1YdU8R2SU+n7cTptP+Tsfw0pjtYumBn5SLOTlLjYVCHJYFJCOiUZbMiCUNs6ESCCUic89JAQaBgC3dkOymKWCXlEkO5tf9ngoYKHD5x1B31r2Fv1a51fZo3tV/yZIaw3ckpqiAo/xmHpg4TiYFOF3gGZGBuRAl+nEv0GbuVWl7PPYG/iFtFbozx7MopigfNZx1RyC5kl7mOGsvxaXznFvuyPp/0rauZg5VznzgQ/lrk7+glRH14pryrDP4zsJGvZcdForEXQh+3adPXur+WJYuy/b/4sivmitWEdQq5zU46UdA2dnpaNqaOW4/LFOIGkUP4eXUiRXF8EiKDoixS1IwT0RKCDh43ggjyhjvw9sr79FSTFU+wGrOcrmtRMzmKkJOY5ILvEFgVlVkJ+Hm4k625fhiC3YvbrumG/ypukTAM7892Idewohh+dKAv31JkVuQg38i7gUPIOpVi4Tg2fL9iJiIRaKrviNgr9tTwSRDJGfjztfZndiAOyStJQwt7f3q0Ti7UyRdSFZy7+8/oaZJdqD2jHiQFPGKggP4VIK0pQRb9VDuRs44bZHRYrq6ord6nm5CSV9aldLGVWCHQOgwvrW1VdyfQrQmLBTbZ7UyZq6sR2UOZEPSaSNWclL7cQM8c/jeNHLlKSweYE1kzHIoJipgtP025ZBIJdrAWSMqOO/D2yHj0VJMVP84igZbUz3tGPpuxmRycHRRPo5jMQvf1uQ0LBNWy7uVb0bHDgBHTw6CaSaatwbyBu06GthLp2wODA8SpjWE4AzjO7Em4gqx5Onx89bWfvTyi4rjGMu603ere5jdmBRIie8XduZYSGEwr1om2X45/Y3wRbFvV2/D7Kowd6+Q0TyJP6M240+/PFj9VF4HMZGTxdJGvuCjeYvWf6C9i1/RglGWxucM1sPCIoZrbgNN3WQ8CHxUfhxz331JG/R9api4KkBAW1nmJG+iZuX7L+8hfCDoFyCtyDZnaHRUJiQO7JwoO2qZdodvQzMGCcukjjvorZi3wX85ZWe46+bUYy49V+Gn20CU6nH8Cx1D0aj8KEnZbJQswQjYdMoC2Wy+T298GHGbYqy7Xcc9gT/7uyqrpy4tTBQ3swQG6j8/vVr1Vt+U0fv+Ho6jNAJGuJSkVFJR6Z9yY2/LJLICk2Ni3jRdQSutOY0kGACIp01oI0MUEEXGx4/h43PNTZRffsIjooPHzC9Pfg0D2Y6T75J3Y920G4JJqgur0GNx79NuZNEdHwYXFQJrN4KHUVfmSz8eqXGk3C3btgWNtJGnJtAn60s/biSg2D2ACnUIwNnV2nHczexK24nH1aNOycqEcFF2Qu5GOvZzs8tXdZevoOQQ/2p6tcyDqBA0l/ix63ZhJFOTNsemrJx/jq098pyaBoFaiiLwJEUPRFitoRAo1EwJpZofIkg3w3xUqXh3FoO2EnRRYV3ci3mHa35MJY/HnjR9EkHa2dmUfKIoZpTZC8Xy99KvLk4fYpPKIsjyyrq1xluXz+rZXLh9uBTIt4UO/4IcdT/xU8a9TfYSWzxuyoxXUapPJdIZ6FWZ18cHuS+zo/pdJZ2w6Lh50v02+B+us07v9L2IIrOWdUco7BPZ2Ww8ZChyu8qmXz3rzx4rd4+9UfKH9P88JqFqMRQTGLZaZJSgGBh1kW5EWMpDjb6PiyDAhU7KR0qd9mQgrzaS0duG3HxitfMcPTNNErtR1vbLv5i4YNyPSIh+Bu5y3qq145mrJLcAlWl3GbFm7bom/5+cJHKKoVi6STVx9wV2Vthc8pgcVX4SSitKpY1CTCvSuGtp0oyPjx0y/MjkSdwPAHw4OmIsyt7mSU/Dgsp6wm9ooh8xN9/vEGPPPEp+CePXZ2retiLwKXKkaFABEUo1ouUtbYEbg32oWRFFdmX6DD9dXHV7GT0qu3sU+12fS/mHUS+5P+Eo3nZuvJdhAeYkcn4i2pg0nbRa7GvNOwtpMR7q6Zk0g5oDZSMzNyoeBto2xT15UHYFt/5QuNJtw+hgde4/FY3Oy8WKRehXcN9/CJzbsk8kRSduYu0TxOCd/B4UWb7YmLjTtmdlio2mFR9lW/cm+n78+9I/IQasiRlfpYzXW/ds0OLL7/LRan0JJC4zcXqCY+DhEUE19gmp70EJjJPHv4cU+Qrvw9bu4KkjJA/1/w0ptl82hUzkLCr7v8mcYOwsjgacwjJUrjJecyjzFX4+0ieWevvujnz4Lj6Sg/X2S7H2rZkF0Z+eEkQd/CI8UeSN6mb3Od7fjRDt8ZCXGNVLX5L+EPdkwjziKtbedI1eHWjbYjseYO/V/7nfrU/95yEPNmvgRmLkQkRR/AzLwNERQz/wDQ9A2DwEQWI4Xn74l0rwmYJtLEwVFx3DP0NpHY3CqHk3ciJvOwaNre9v6YEn6/SKasaHM1buMYjAlhc5VNRFeeE+eH8++KZO1cozEi+A6RrK4K99zhHjxNKXzHZAhziVZ3W+bj1bap4bK5HZexHDv2/FZn4RFsj6buFj2f0v5+FvLeXyQzROXAf2cwa+L/UF5WSSTFEAtgRO8kgmJEi0WqmhYCI4McGElxRTdvHUaL1taKnRSev4dn9jOzwt2G+dEJDxuvXuryRNHmamxjYYd7mXGotpLCcvpsrZXTp5fvUHT3HaytuVaZNi8crQ21CHkslS4samw7t2iNI5vSymKsufC+qJc1M3Cd12mFSKat8jezxUlUi8diyY6OuLGwPlF1tY3X3LIzJ69i6pjlKMwvpiSDzQ2uCY1HBMWEFpOmYnwIDPK3Fzx8+rfRbTgoGzFa2E1h/5Ib3wSboPH22F9Zor6rGiPUlT2YkxltuW9msVgp3HajdtHmijs6ZKZGQLXa/dTrO+PW4yazKVEvPI4JD3nPo74Ws+MjnsyPu0Hz7MV8t8SZ5Q3iR0l17WhwW5UNV1arDwt9vHf4sdiaCx+IiF1du06iF7Ri5dqVBEwasRQZabmCG7KlpQ67rFbUiV4lLQSIoEhrPUgbM0SgJ8vfw2OlDG+re9teNmSYsJsCJyezQCix4IYQ1r25JjuC2ay002Kzsp/FCbnI4oWol1kszDwPGa9v2Zf4Jy5lnxI1n8KSCHprSSIoalRPJaUwDltvrBG1CnaJxOiQGSJZ7Yo2t+loz14sYN3Y2k0NXk9KzBCSDMbeTBEyIRNJMfiSSEoBIiiSWg5SxlwRiPa0EVyQx4c66IRA1m+AYifF3UNnG1N4wHcaNl75UuQi29R5KcPh1x5ny7XvkVpck9vG2sJGOAqp3a6uOs8szOOgqBd93IDV22u7j827jH/ifhM90icy7h9sTmlqc+IDDAq4HVGePURjSaWSlZmHaWOfRMyZawJJoSSDUlkZw+tBBMXwa0AaEAICAqGuivw908J175LIevZS7KT4+pksaueZJ87BWp44PFOxl4N+OYuKyvM1YpIEOrXDuHZ3amD2/bl3US4vVcl5eHl+PNOQos0VuDl2LJIKb+KvGz+JVGnv1pklKJwskqlX+E4O39GpXUax/DshLA+PVEthQTHmTH4WB/aeEUiKNbO/okIIEEGhzwAhICEE/BythCSDd0c569RK1rmrgqS0bauzjbE+KGNh3X9l2Yr5Vb109OyNAQFj1EU677URHJ5FmCfgUy+FFXksCNpKdZGQ14a78TakpBUl4o/r34m6cELFPY08mRFsXYUHbNMV5bawnOl3Sawft1uZEfmw1j6FLDngRmazwj2Tahddbtm12xmyXlZWjvvnvIq/N+8XDGcpf48hV0Ma7yaCIo11IC0IARUCrrYWQpyUBXXl7+kQBQvu3dMuTNXPFG60BVrjXjizWGAyOyvdx1/qc9dlv3Jn1GNwtHZRNY1nkVy3x65V1fnNAP8x6OjVsCB53CiXE53apMrVxgNDWERYP0dNIskNWblrMjeuncFirtQOOMd14eTlW5bEkGdPVi/a4qDwfEJ8LurxXNT7SPmIR13PqqoqLFnwHn767m/BcNbWVoeHm3onujdZBIigmOzS0sSMGQFbS5a/hwVz427ILJWP9sLIiYyRFBkjK6ZQckozhR0AOUv3p176thkhuOKqy+q6LyjPxdpLn2g0qe2dc5rFCjlWK1bIhHZz0cYpWKNvfYKzGYdwhIXM11ZC2dEKPzriHjwlzHWYh+znxIQTGh6c7f7OT2vrJsi2Xl+DlKI40XO+49KB2ZMEu0Sgmtnr8Oc82q427yVlx57MdbpHA1ynlf0Mca2ursYLKz7HJ++vo/w9hlgACb2TCIqEFoNUIQRqI/AIC4vPo846WutgKYFBjKSMgqxL19pdja7+942fkVh4Q6Q3d8nlOww8joe+RbHz8CbbeagSdeGZf3kGYGXZE/+7EEpeWedXfYKgqbdX3vNdDn40VcSOWRpSuOszd4HWVTKKk7H52reikPW62tYl52SGEzRjKu+/8RNeffYrIinGtGjNrCsRlGYGlIYjBJobgfs68vw9bvCyF+edUb2HGcwKOynMgNZYC493wuOe1C6N9Yb57fLnyC3LFA1X+0uaxxjhsUaUxdHKGXdGL1FWG3zl4eU56SmuLNS7Lz/+mRh2b53t9yf+hYvZJ+tso/6Qkx6eJVm98ABv97AItNqOktTbSe3+2y+2YPmiD2BpSUkGpbY2raEPEZTWQJneQQg0EYHZkc5CksG2zlbaR2KuxwJJ6T9A+3OJS7URisZ41CinuSP2N8TlX1ZWhSvfjZnNYpwoyzcxfJelxr4j0DkM40LnKB836sqPbQ4kbcP13PP19re1tEMnlidIn6MXnu+Hh66v6xiH2+r09BsC7kHEyZ56JFmuzFQWm8WribFZ6p1UCzTYtG4PHrz7NRZM2YJC47cAvlIekgiKlFeHdCME1BCYHOYo7KRE6Mrf4+ikIClDh6n1Mo5bbtha28iUR1nVFv1VnxlllqSAh71XLw7WTuB5eZSFf4Gre7zwd9UV2VXZT58r35nJLkkXdnH4Tk5JZRHLn+MAB2tnIYos14O7Tevy4NH2Du51lFhwE7kse3IOG5PbanjYebM/H3jY+8KdZUzmNi288Hdyw1n1wm1hpBLqXl0vfe53bT+Gu+94DlWV1URS9AHMRNoQQTGRhaRpmAcCo4MdBJLS1VtH2HsWDl/YSeEePlQIARNC4Nih85g+7imUlJQJbsgWFjqOPE1ozuY+FSIo5v4JoPkbHQKDA+yFWCl9debvYb/LRzHvHk5SKOCV0a0vKawbgQsxNzFl1DLk5hQQSdENk8k8IYJiMktJEzEnBHr52gkuyMMC68jfM/Q2BUlxdDQnaGiuJo5A7I0UIX9PclKGQFIof4/pLjgRFNNdW5qZiSPQiefvYUkGx4XoDmAm6z9Qkb/HTTOTr4nDQ9MzYQTSUrOFnZSrl+KZTYod8/LR3w3dhGExuakRQTG5JaUJmRMCYSx/Dycpd7TXvUsi69VbsZPi42tO0NBcTRyB3JxCzBj/FE4evSQYzlKSQdNbcCIopremNCMzQ8Cf5e9ZxCLO3tWhjvw9XbopSEpgoJmhQ9M1ZQSKi0sxd9oL2LPjuEBSKMmgaa02ERTTWk+ajQQR8HWwZDle7NGfGbW2YzsennaW4Pl2SquqkVRYiWT2tyuhGH/eKGJxORo3AXc2Ht9Jmd+pJteMxkhR0QJJkYW203hEAkLAWBGoKK/EQ/e+jk2/7hFICiUZNNaV1NSbCIomJiQhBJoFAQ9GRJ7o4YY5LMialR4ekQkFlXj+YBb+TRRn8tVXGTsrmRAWn++m6AiMD4S1V5CUyA76DkvtCAHJIyCXy7Fi8Uf45vM/KMmg5FdLfwWJoOiPFbUkBPRCgJODBzu74lG2o+FkU0MVCiuqcTKtlO2eWKKzl43WJICVLE/esr0Z2Hy9SK93aWu0iOXv4bspDoywaC1tgxlJYfl7OnfR+piEhICxIvB/z3+N9177kfL3GOsC1tKbCEotQKhKCDQVgeU93QUXYPVx3jqegy9j8lEpV5zhDGXuwV+N8oW1lp2VcpbjbsSGRPAdlcaW+1n+nsWMpHjYaXkBH9SPRTHlmZB79GzsK6gfISBJBFZ98BueW/4ZuNGsnZ2dJHUkpfRDgAiKfjhRK0JALwSimevvH5P8NY50+NHNmosFojHeHOSF2ZFOIpmy8vOlAjxzIEtZbdSVHy0tZsc9AU468vd4eCpISr/+jRqfOhECUkXgl++349H5b8PCwlKwS5HJdOwmSnUCpJeAABEU+iAQAs2IwKsDPDE3StObJrdMjlEbkpBRwrZHbpX5nVzxXF/t8UnOZJRj8h/JyqaNvk4JcxJISns3a+1jODsrSMrgodqfk5QQMFIE/tp8APfNepnlLAKRFCNdQyIoRrpwpLY0Edg4sQ16+NhqVe7VI9n4+ly+6hl3C35toKeqrn6TUlSF/msT1EWNvh/LArkt6uom2L1oHYQFuhJsUkaM0vqYhISAsSKw79/TmD3xf6hg56a2trYsIzLtpBjTWhJBMabVIl0lj8D6CW3Qy1c7QfnoVC4+OJmrmsOMCCe8M9hLVVe/yS6Vo8dP8eqiJt1zmxdOUvr4adcNLJW9Kn8PO7unQgiYCgKnT1zB1DHLUVRQQvl7jGxRiaAY2YKRutJG4BHmQfNUL81jG24bO3x9EmLzK1QTmB7uhHeHaCcoheXV6LQmTtW2OW76+NkxkuIKTlZ0Fdmw4cKRDxx0h8/X1ZfkhIBUEeAh8SeNXIbM9FxhJ4UyIUt1pcR6EUER40E1QqBJCFiyHeTXB3phJjN+Vd9M5h48rx3NFsbmbSYx25DHmJdNqKv23YqSympEfd+8BIW/vLOXrZAJeUxd+XsGDFLk73F1axIW1JkQkBICifHpmDxyKeJiU2FrY0v5e6S0ODp0IYKiAxgSEwJNQSDExRodPKxhxc68L+aU43puBfPskQk5c/hRS7CLdmKifGdLERQ+PjeY5S7IU8LqyN/Tu69iJ8XbW6kSXQkBo0cgMyMXd4xZgQsxN4TjHsrfI+0lJYIi7fUh7UwAAb6TMpGRgSdZfJRA57qJiXK6LUlQ+Du46zEnKXN0uDnzNrKu3RUkJSCAV6kQAiaBQEF+MWZPegaH958VSArl75HushJBke7akGYmgEA3b1u80M9D5NnD7VE+O5uHRBaI7Y1B2r14WpqgcGh5TiAeFp8HddNZojsKJEUWEqqzCT0gBIwNgdLSctzPXJC3bT0khMan/D3SXEEiKNJcF9LKyBHgxzlPMmPZBZ1dRLYoPJT9wt3p2BFXjLqMZFuDoHCIeTh8HhafG8/qLO3DFSQlIlJnE3pACBgbApWVVSyY2ztY+8N2wXCWSIr0VpAIivTWhDQycgR4ksBvR/uiq7eNaCZs4wRP/JuJ368XCnIpEBSuCA8NsZjZxXCSwhMOai1BIQo35I6dtD4mISFgjAhUsyhuzy1bhVUfrhd2UnisFCrSQYAIinTWgjQxAQS4h86asX4Y4K+ZA+TXy4V4an+mapZSIShKheZ3chF2U9xtdeTvaeOv2Enp3kPZha6EgEkg8O5ra/Da899QkkGJrSYRFIktCKlj3Ag83t0Nj/fQ7p47goW65948yiI1gsL14tFtufFsG0dLpZriq6eXgqT07SeWU40QMHIEvv5sM1Ys/oiSDEpoHYmgSGgxSBXjR+DgrLbwd9L+5T5kXSLi1TIUS5Gg8BW4o70if087Vx35e1yYXQ3PhDxoiPEvGM2AEFBDYMPa3Xj4ntfZsacFhcZXw8VQt0RQDIU8vdfkEOBf6Lun63bJXXUmD28fzxHm7Whtge/H+OoMi1/BjGnDv401GEbjQhyFJIMdWXZmrcXOXkFSho/Q+piEhICxIrBz21HcfcfzkFdVE0kx8CISQTHwAtDrTQeBISyE/A+MdOgq3IPn38QS3MirwIRQR507Lcr+0SySrBszuOXZWFOKKpXiVrve1laRv0dXbiGwVPaq/D2W2neNWk1ZehEh0IwIHDl4DjNufwqlJeVCrBQKjd+M4DZgKCIoDQCLmhICdSEQ4W6NHXfo3kGpq6+2Z7H5lXC0lsGWWd52WdN8iQO1vUuXrF8bnr/HDYMDNI1+lX1kt40QdlNgrzvHj7ItXQkBY0Hg/NnrmDJqOfJyC4mkGGjRiKAYCHh6rekhwGOfnLyrLVxsdHjBqE05p0yO907k4P8GaA/UptYUX5zNxxvHFHl81OWtdd+VBZvjLsijg3UnEJQNHKzI3+NSRzyV1lKY3kMINBMCN68nY9KIpUhNzhRIiiXtFDYTsvoNQwRFP5yoFSGgFwIzIpzwzmDtGYqVA+xOKMHzB7OQVFiJn8dpd0lWtt0WW4xFLLAbOw43aIlwtxGSDE6qK39Pn36KnRSvuudf10Sqr1+DLDAQsNW9Y1NXf3pGCDQ3AqnJWWwnZRmuXUkUbFKIpDQ3wrrHI4KiGxt6Qgg0CoE5kc54to8HnGxqgp7x8PYHU0rxzbl87E4oVo3rZW+J94Z4YSizX1EvuWyHhWdAXnUmFwbmJiq1glgeIX7cM6uu/D3deihIir+/ql9DbqrPxQCcpEye2pBu1JYQaFEEcrILBJuUU8cvCySFkgy2KNyqwYmgqKCgG0Kg+RCwZxFZ+a5DIEvKl1FShevMMDaLXXUV/uXPMyBz7x5uEHspuxylht420aIsJ1Q8Tsq8aGctTxUiGYs2y92QERyis42uB9WXL6H6yy9gsXQF0EiSo2tskhMCTUGguKgUdzHvnv92nhBICiUZbAqa+vUlgqIfTtSKECAEbiHgxEgUTzL4SJc67E3CIwSSImPXBpWbNyFf+QEQ2g4Wi5co4vA3aID/b+9uYKQo7ziO/5+5l707kONQXgR59RWLhEMrRfENj6BFQVSQ+kKVoFjfeDvkzVZ8qeJrLalp1DY21lijNX2x2NQaY2zTGhttjKaoNSpp0Chiy8Hd3gG31/8zs3u3e+wuO3s7u3u734nHzc7LMzOf2ciPZ55nHjZGIDiBffv2y3VX3SO/e/41N6Qwfk9w1rZkAkqwvpSOQEkK2Ff620EG7Rg+1al6GOsIyO4L3XRE5IynHTsk8tB97uZm0eVitF0LEwLFJNDZGZHmGx+RXzz+ojacrXaDSjGdXymdCwGllO4m14JAngWuPanebTxbn2r8npGjvJAypTGzM9u5UyL33uVtW1kpziadrxuQ2b5shUCeBGy7sLs2PCE/2vwMISVAcwJKgLgUjUA5CFw5Ucfv0ZqUEanG7zliqBdSTp12aI7duyVyx/e7tzPTTxOzYFH3Z2YQKCaBnzz0nPzg1p/q+D1VUlNDz7Nc3xsCSq5FKQ+BMhSw4wrZHj7j6yuTX319vRdS9H0paadwWCIb1yZs4ixflVWD24RC+IBAQAJPP/lHWX7tg2K7H4dCIR3Hp6f3XkCHLJtiCShlc6u5UASCFZijr++3jWdPHJJi/J7aOi+knDMz9Yl0dkpkzcrE9UeNFmfFahHn0C/AS9yRTwjkR+APv/mLLFl0px5M3/xMSMkZOgElZ5QUhAACM0fXuYMMTh0WSo5RUemFlFnaDTlF4HADigaV+MnMv1TMGYyeHG/CfHEJvP7q2/KduRtl//4DGlJqqEnJwe0hoOQAkSIQQKBHYLqO32PflXL6yNTP5M3MJjeo6IP7nh2jc5EN+oinPZy4XEdPdtZvFDlsUOJyPiFQRAJv/+N9ueS8NdK6t919NT6DDPbt5hBQ+ubH3gggkERgio7fY0NK05jEN+TGb2pmnOmN39MrdEQ2aSPZlt3xm7rzZuopYq5cfNByFiBQTAIfbNsu85pWy66vdkuoOqQVhTyazPb+EFCylWM/BBBIK3C8Hb9H26RcOCF1N2EzbbrWpMwSObxn/J7IPdq1+KudSco24txwk8gxxyZZxyIEikfgP9u/0JCySuzvag0pjN+T3b0hoGTnxl4IIJCBwNhB3vg9C3UQxVSTaTzZq0kZcaS7SeRBfVHbZzuSbz58hDjN+giIUWWT+7C0aAR2fvk/uXh2s2x77xM3pDB+j/9bQ0Dxb8YeCCDgQ2BYXYXbBfm76cbvmXSS1yZlzFiJbNFX3X/6ScojmDlzxZzblHI9KxAoFoGW3a1y2YXr5c2/veeGFMbv8XdnCCj+vNgaAQSyEDis2nHfOLss3fg9xx2vIWW2yCt/kq4PP0h9FPtcf+16kYYhqbdhDQJFItAe3idXX7ZJXt76htsFmZCS+Y0hoGRuxZYIINAHgUrHuCHFjuGj4w0mn8ZNEOmKiGz/NPn66FIzabKYJUvTbsNKBIpF4MCBTrlxyX3y3NN/dkMKgwxmdmcIKJk5sRUCCORIYJkdv0cbz9palaSTvtBNwm1JV8UvNEuXifEzEGH8zswjkGeBrq4uWb/yUXlsywv6uIdBBjPhJ6BkosQ2CCCQU4HFJw5ya1Ns+5SsJ+3549yqj3qqqrIugh0RyLfA/Xc+JfduelKqqnX8Hn2hG1NqAQJKahvWIIBAgAILtGePHWTQ9vTJdjKzZos5f062u7MfAgUReOLR38raW7boIIOVDDKY5g4QUNLgsAoBBIIVsO9IsYMMnjAky1oQ/R+8s2adyNBhwZ4opSOQY4FfP/OKXH/1ZnGMw/g9KWwJKClgWIwAAocWqK4wcsaoWhmk7UlqK437U1fpzdtBA78Md0qNblNbZSS2vFbX10W3tfMDdJ22n81+Ou4Eca6/Ifv92ROBAgm8/NIbsviS2yUS6SKkJLkHBJQkKCxCAIHMBewjmpu1Z878owdKRYp2r5mXlt2WZvE1YqY0ZrczeyFQQIG///VdWThnnXS073PflcKr8XtuBgGlx4I5BBDog8D4QVVyc+NgmXf0ANFKk/xO9YPFWbdBhEaH+XXnaDkRePedj2T+rGYdgqqVkBInSkCJw2AWAQT6LjChvkrunH64zBiV3x4K5qxzxMyb3/cLoAQECiDw8Uc7ZO65q+SLz3e5IYXxe0QIKAX4InJIBMpB4JjBVXKL1qhcMH5A39qYZIrlVIizao3IyJGZ7sF2CBSVwOc7vpJ5s1bLx//e4bZJKfeQQkApqq8nJ4NA6Qkcq0Fl+dTB8u1xeQgq4yeIc9Ny/adXvp8xld5944oKI/Dfr1vkkvPWyjtvf+iGlHIeZJCAUpjvIEdFoOwEjm+oluVao3L+uLpA84NZdIWYU6eVnS8XXDoCrXvDcsX82+T1V//phpRyHb+HgFI632muBIF+ITBRux/boDJ7bEBBZcBAcdbfJlKnr8xnQqCfCuzr2C/XXnm3/P6F192QUo7j9xBQ+umXl9NGoL8LfONwL6jMskElxxdjpp8uZsFlOS6V4hDIr0BnZ0RWfe9heepnW8ty/B4CSn6/bxwNAQR6CUw6olpWNjbIzDG1uQsq+nZOc8tKMWPH9joaHxHoXwI6xqDcsf5x+fH9v9KQUqW1KfntHVdILQJKIfU5NgIIdAtMPiIkK7Ux7Tmja7uX9WnmqNHirFgt4hTo7XF9Onl2RiBRYMsDz8rtax/TsTF1kMGa8ggpBJTE7wCfEECgwAJThnpB5ayj+h5UzMWXiplxZoGviMMjkBuBX/58q6xY9rDY7sehUEgbm+f64WhuzjNXpRBQciVJOQggkFOBqcNsUGnQsX768K/FmlptMLtR5LBBOT03CkOgUAK20ezSy+/Sw5uSDykElEJ9yzguAghkJHDK8Br30c/pI7MLKqZxqpirrs7oWGyEQH8QeO2Vt+TyizbKgf2Rkg4pBJT+8G3kHBFAQE4d4QWV6Uf6DSpGzHXXizlhIooIlIzAW29u0xe63Sptre0lO34PAaVkvq5cCALlIfAtDSi2Me00DSwZT8OHi9O8TvThfca7sCECxS7w/r8+lXlNq+XrXS0Sqg5pe/DSahBOQCn2byDnhwACSQVO00c+tnvyN0eEkq7vvdBcMFfMzKbei/mMQEEEIpEuaWtrF/vW2NY9bbLX/taf3r/dZXvsurbu9XabPS1t+tMqH27bLvZ9KXaq05cTltL4PQSUgnw1OSgCCORKYMbIWrdG5eThhwgq9l+YazeINDTk6tCUUyYCXfoyEvsoJRYeEoKEhov4zwfN6/o99kcDxd7otras9vZ9Yss91GR76lRUON21I3aPLg03dorvxWPnbQ1KKb0Wn4Di3mb+QACB/i5w5qhaaT6lQSbri99STeakyWKuWZpqNctLQMANE7ZmQmsdkgaKaE1FsloLGy5aojUT3WFCy2oP+wsTRoNCrAOwrSmxUyxMxP9ONR/bPrbeLaAM/yCglOFN55IRKGWBpjF1skrbqJyor9JPNpkl14mZNCnZKpblWcCGiXBbRzRI9DzmiA8XB4cMWxPhPQ7xaiZauz/bmolwuMNXzQRhIs833cfhCCg+sNgUAQT6j8DM0XWyQoNK7xqVXZEqGbL5HqmoOcQjof5zqXk501iYOOgRhlsj0RMuYuGh93Yt2l4i4TGH1ky4YSJaw5DuImxNgn3MQZhIp1R66wgopXdPuSIEEIgK2Gr2c7VG5ZGzh8rAqlilu8iLe2rl/Ed/qN0zK0vSyjZtCIejDTA1QLi1EEkfefQECzdQHFQz4a1320xozUTscUU6tKRhwp6Q/hd7ZBH/O37elms/xy+Lzac7JutKU4CAUpr3latCAIE4ARtN7KjJKxq9Rz8dnV3S/ElIHnj2bu354KO7clyZuZq1LRTa9TFHfI3D3miPjYRl0fDQs8wLD15vDp2Pa4BpayYiEa9nR7rztH/5ezUTGgqirSbiQ0iqsBALDanWpzsm6xDIVICAkqkU2yGAQL8XsEFl9rg6WT5lsHzRul82f1Yjz790n9QPHpjxtdm//G1I6A4K3TUTib05uttOdK/XrqF7vMcctu2E3d9tM6HhJNMw4bi9OeLCRLRmwp58qrBAmMj41rJhkQkQUIrshnA6CCAQvIBWHMjs0TWybWerhOuHyEULz3bDQnzw2Ku9OWy7Ca9NhQaKaAPMSPSdE+nO0oaC3mHCtuGwecJOhAnPgT8RSCdAQEmnwzoEEChpgc7OTuno6NDEIOLEtX3oS5iwYLFai5LG4+IQCFiAgBIwMMUjgAACCCCAgH8BAop/M/ZAAAEEEEAAgYAFCCgBA1M8AggggAACCPgXIKD4N2MPBBBAAAEEEAhYgIASMDDFI4AAAggggIB/AQKKfzP2QAABBBBAAIGABQgoAQNTPAIIIIAAAgj4FyCg+DdjDwQQQAABBBAIWICAEjAwxSOAAAIIIICAfwECin8z9kAAAQQQQACBgAUIKAEDUzwCCCCAAAII+BcgoPg3Yw8EEEAAAQQQCFiAgBIwMMUjgAACCCCAgH8BAop/M/ZAAAEEEEAAgYAFCCgBA1M8AggggAACCPgXIKD4N2MPBBBAAAEEEAhYgIASMDDFI4AAAggggIB/AQKKfzP2QAABBBBAAIGABQgoAQNTPAIIIIAAAgj4FyCg+DdjDwQQQAABBBAIWOD/lfI+EqcrBz8AAAAASUVORK5CYII=;" parent="1" vertex="1">
                    <mxGeometry x="210" y="120" width="82.08" height="80" as="geometry"/>
                </mxCell>
                <mxCell id="6" value="" style="shape=image;verticalLabelPosition=bottom;labelBackgroundColor=default;verticalAlign=top;aspect=fixed;imageAspect=0;image=https://www.mathsisfun.com/algebra/images/right-hand-rule.jpg;" parent="1" vertex="1">
                    <mxGeometry x="250" y="300" width="52.34" height="60" as="geometry"/>
                </mxCell>
                <mxCell id="8" value="a · b &gt; 0&#10;Same Direction" style="text;html=1;strokeColor=none;fillColor=#e8f5e8;align=center;verticalAlign=middle;whiteSpace=wrap;rounded=1;fontSize=10;fontColor=#000000;" vertex="1" parent="1">
                    <mxGeometry x="1100" y="129.99999999999994" width="100" height="30" as="geometry"/>
                </mxCell>
                <mxCell id="9" value="a · b = 0&#10;Perpendicular" style="text;html=1;strokeColor=none;fillColor=#e8f5e8;align=center;verticalAlign=middle;whiteSpace=wrap;rounded=1;fontSize=10;fontColor=#000000;" vertex="1" parent="1">
                    <mxGeometry x="1210" y="129.99999999999994" width="100" height="30" as="geometry"/>
                </mxCell>
                <mxCell id="10" value="a · b &lt; 0&#10;Opposite Direction" style="text;html=1;strokeColor=none;fillColor=#e8f5e8;align=center;verticalAlign=middle;whiteSpace=wrap;rounded=1;fontSize=10;fontColor=#000000;" vertex="1" parent="1">
                    <mxGeometry x="1100" y="179.99999999999994" width="100" height="30" as="geometry"/>
                </mxCell>
                <mxCell id="11" value="a · b = |a||b|&#10;Parallel (max)" style="text;html=1;strokeColor=none;fillColor=#e8f5e8;align=center;verticalAlign=middle;whiteSpace=wrap;rounded=1;fontSize=10;fontColor=#000000;" vertex="1" parent="1">
                    <mxGeometry x="1210" y="179.99999999999994" width="100" height="30" as="geometry"/>
                </mxCell>
                <mxCell id="12" value="a" style="endArrow=classic;html=1;rounded=0;strokeWidth=3;strokeColor=#1976d2;" edge="1" parent="1">
                    <mxGeometry width="50" height="50" relative="1" as="geometry">
                        <mxPoint x="910" y="140.00000000000006" as="sourcePoint"/>
                        <mxPoint x="960" y="140.00000000000006" as="targetPoint"/>
                    </mxGeometry>
                </mxCell>
                <mxCell id="13" value="b" style="endArrow=classic;html=1;rounded=0;strokeWidth=3;strokeColor=#4caf50;" edge="1" parent="1">
                    <mxGeometry width="50" height="50" relative="1" as="geometry">
                        <mxPoint x="910" y="160.00000000000006" as="sourcePoint"/>
                        <mxPoint x="960" y="160.00000000000006" as="targetPoint"/>
                    </mxGeometry>
                </mxCell>
                <mxCell id="14" value="a" style="endArrow=classic;html=1;rounded=0;strokeWidth=3;strokeColor=#1976d2;" edge="1" parent="1">
                    <mxGeometry width="50" height="50" relative="1" as="geometry">
                        <mxPoint x="1020" y="140.00000000000006" as="sourcePoint"/>
                        <mxPoint x="1070" y="140.00000000000006" as="targetPoint"/>
                    </mxGeometry>
                </mxCell>
                <mxCell id="15" value="b" style="endArrow=classic;html=1;rounded=0;strokeWidth=3;strokeColor=#4caf50;" edge="1" parent="1">
                    <mxGeometry width="50" height="50" relative="1" as="geometry">
                        <mxPoint x="1045" y="160.00000000000006" as="sourcePoint"/>
                        <mxPoint x="1045" y="210.00000000000006" as="targetPoint"/>
                    </mxGeometry>
                </mxCell>
                <mxCell id="16" value="a" style="endArrow=classic;html=1;rounded=0;strokeWidth=3;strokeColor=#1976d2;" edge="1" parent="1">
                    <mxGeometry width="50" height="50" relative="1" as="geometry">
                        <mxPoint x="910" y="180.00000000000006" as="sourcePoint"/>
                        <mxPoint x="960" y="180.00000000000006" as="targetPoint"/>
                    </mxGeometry>
                </mxCell>
                <mxCell id="17" value="b" style="endArrow=classic;html=1;rounded=0;strokeWidth=3;strokeColor=#4caf50;" edge="1" parent="1">
                    <mxGeometry width="50" height="50" relative="1" as="geometry">
                        <mxPoint x="960" y="200.00000000000006" as="sourcePoint"/>
                        <mxPoint x="910" y="200.00000000000006" as="targetPoint"/>
                    </mxGeometry>
                </mxCell>
                <mxCell id="18" value="a" style="endArrow=classic;html=1;rounded=0;strokeWidth=3;strokeColor=#1976d2;" edge="1" parent="1">
                    <mxGeometry width="50" height="50" relative="1" as="geometry">
                        <mxPoint x="1020" y="220.00000000000006" as="sourcePoint"/>
                        <mxPoint x="1070" y="220.00000000000006" as="targetPoint"/>
                    </mxGeometry>
                </mxCell>
                <mxCell id="19" value="b" style="endArrow=classic;html=1;rounded=0;strokeWidth=3;strokeColor=#4caf50;" edge="1" parent="1">
                    <mxGeometry width="50" height="50" relative="1" as="geometry">
                        <mxPoint x="1020" y="240.00000000000006" as="sourcePoint"/>
                        <mxPoint x="1070" y="240.00000000000006" as="targetPoint"/>
                    </mxGeometry>
                </mxCell>
            </root>
        </mxGraphModel>
    </diagram>
</mxfile>
